<?xml version="1.0" encoding="UTF-8" standalone="no"?>
<svg
   xmlns:dc="http://purl.org/dc/elements/1.1/"
   xmlns:cc="http://creativecommons.org/ns#"
   xmlns:rdf="http://www.w3.org/1999/02/22-rdf-syntax-ns#"
   xmlns:svg="http://www.w3.org/2000/svg"
   xmlns="http://www.w3.org/2000/svg"
   xmlns:sodipodi="http://sodipodi.sourceforge.net/DTD/sodipodi-0.dtd"
   xmlns:inkscape="http://www.inkscape.org/namespaces/inkscape"
   preserveAspectRatio="xMidYMid"
   width="425.87219"
   height="405.87216"
   viewBox="0 0 425.87219 405.87218"
   version="1.1"
   id="svg18"
   sodipodi:docname="data_science_05.svg"
   inkscape:version="0.92.3 (2405546, 2018-03-11)">
  <metadata
     id="metadata22">
    <rdf:RDF>
      <cc:Work
         rdf:about="">
        <dc:format>image/svg+xml</dc:format>
        <dc:type
           rdf:resource="http://purl.org/dc/dcmitype/StillImage" />
        <dc:title></dc:title>
      </cc:Work>
    </rdf:RDF>
  </metadata>
  <sodipodi:namedview
     pagecolor="#ffffff"
     bordercolor="#666666"
     borderopacity="1"
     objecttolerance="10"
     gridtolerance="10"
     guidetolerance="10"
     inkscape:pageopacity="0"
     inkscape:pageshadow="2"
     inkscape:window-width="1920"
     inkscape:window-height="1016"
     id="namedview20"
     showgrid="false"
     fit-margin-top="0"
     fit-margin-left="0"
     fit-margin-right="0"
     fit-margin-bottom="0"
     inkscape:zoom="1"
     inkscape:cx="75.233718"
     inkscape:cy="85.974336"
     inkscape:window-x="0"
     inkscape:window-y="27"
     inkscape:window-maximized="1"
     inkscape:current-layer="svg18" />
  <defs
     id="defs12">
    <linearGradient
       id="gradientFill-1"
       x1="0.7414425"
       x2="590.86261"
       y1="3.6658268"
       y2="593.78699"
       gradientUnits="userSpaceOnUse"
       spreadMethod="pad"
       gradientTransform="matrix(0.50649136,0,0,0.33921156,143.00452,294.51347)">
      <stop
         offset="0"
         stop-color="rgb(203,206,208)"
         stop-opacity="1"
         id="stop2" />
      <stop
         offset="1"
         stop-color="rgb(132,131,139)"
         stop-opacity="1"
         id="stop4" />
    </linearGradient>
    <linearGradient
       id="gradientFill-2"
       x1="301.02603"
       x2="703.0675"
       y1="151.4006"
       y2="553.44208"
       gradientUnits="userSpaceOnUse"
       spreadMethod="pad"
       gradientTransform="matrix(0.41033027,0,0,0.41870597,143.00452,294.51347)">
      <stop
         offset="0"
         stop-color="rgb(39,109,195)"
         stop-opacity="1"
         id="stop7" />
      <stop
         offset="1"
         stop-color="rgb(22,92,170)"
         stop-opacity="1"
         id="stop9" />
    </linearGradient>
  </defs>
  <circle
     r="132.93608"
     cy="272.9361"
     cx="132.93608"
     id="circle864"
     style="opacity:0.825;fill:#f50036;fill-opacity:0.29803922;stroke:none;stroke-width:5;stroke-linejoin:round;stroke-miterlimit:4;stroke-dasharray:10, 10;stroke-dashoffset:0" />
  <circle
     style="opacity:0.825;fill:#00ff00;fill-opacity:0.29803922;stroke:none;stroke-width:5;stroke-linejoin:round;stroke-miterlimit:4;stroke-dasharray:10, 10;stroke-dashoffset:0"
     id="circle866"
     cx="292.9361"
     cy="272.9361"
     r="132.93608" />
  <circle
     r="132.93608"
     cy="132.93608"
     cx="212.93608"
     id="circle868"
     style="opacity:0.825;fill:#6800ff;fill-opacity:0.29803922;stroke:none;stroke-width:5;stroke-linejoin:round;stroke-miterlimit:4;stroke-dasharray:10, 10;stroke-dashoffset:0" />
  <text
     xml:space="preserve"
     style="font-style:normal;font-variant:normal;font-weight:normal;font-stretch:condensed;font-size:26.54799843px;line-height:1.25;font-family:'Fira Sans Condensed';-inkscape-font-specification:'Fira Sans Condensed, Condensed';font-variant-ligatures:normal;font-variant-caps:normal;font-variant-numeric:normal;font-feature-settings:normal;text-align:center;letter-spacing:0px;word-spacing:0px;writing-mode:lr-tb;text-anchor:middle;fill:#000000;fill-opacity:1;stroke:none;stroke-width:0.66369069"
     x="83.478371"
     y="285.79694"
     id="text872"><tspan
       sodipodi:role="line"
       x="83.478371"
       y="285.79694"
       style="font-style:normal;font-variant:normal;font-weight:normal;font-stretch:condensed;font-size:26.54799843px;font-family:'Fira Sans Condensed';-inkscape-font-specification:'Fira Sans Condensed, Condensed';font-variant-ligatures:normal;font-variant-caps:normal;font-variant-numeric:normal;font-feature-settings:normal;text-align:center;writing-mode:lr-tb;text-anchor:middle;stroke-width:0.66369069"
       id="tspan918">Ciência da</tspan><tspan
       sodipodi:role="line"
       x="83.478371"
       y="318.98199"
       style="font-style:normal;font-variant:normal;font-weight:normal;font-stretch:condensed;font-size:26.54799843px;font-family:'Fira Sans Condensed';-inkscape-font-specification:'Fira Sans Condensed, Condensed';font-variant-ligatures:normal;font-variant-caps:normal;font-variant-numeric:normal;font-feature-settings:normal;text-align:center;writing-mode:lr-tb;text-anchor:middle;stroke-width:0.66369069"
       id="tspan922">Computação</tspan></text>
  <text
     id="text876"
     y="287.19196"
     x="345.08038"
     style="font-style:normal;font-variant:normal;font-weight:normal;font-stretch:condensed;font-size:26.54799843px;line-height:1.25;font-family:'Fira Sans Condensed';-inkscape-font-specification:'Fira Sans Condensed, Condensed';font-variant-ligatures:normal;font-variant-caps:normal;font-variant-numeric:normal;font-feature-settings:normal;text-align:center;letter-spacing:0px;word-spacing:0px;writing-mode:lr-tb;text-anchor:middle;fill:#000000;fill-opacity:1;stroke:none;stroke-width:0.66369069"
     xml:space="preserve"><tspan
       style="font-style:normal;font-variant:normal;font-weight:normal;font-stretch:condensed;font-size:26.54799843px;font-family:'Fira Sans Condensed';-inkscape-font-specification:'Fira Sans Condensed, Condensed';font-variant-ligatures:normal;font-variant-caps:normal;font-variant-numeric:normal;font-feature-settings:normal;text-align:center;writing-mode:lr-tb;text-anchor:middle;stroke-width:0.66369069"
       y="287.19196"
       x="345.08038"
       id="tspan874"
       sodipodi:role="line">Matemática e</tspan><tspan
       style="font-style:normal;font-variant:normal;font-weight:normal;font-stretch:condensed;font-size:26.54799843px;font-family:'Fira Sans Condensed';-inkscape-font-specification:'Fira Sans Condensed, Condensed';font-variant-ligatures:normal;font-variant-caps:normal;font-variant-numeric:normal;font-feature-settings:normal;text-align:center;writing-mode:lr-tb;text-anchor:middle;stroke-width:0.66369069"
       y="320.37701"
       x="345.08038"
       sodipodi:role="line"
       id="tspan878">estatística</tspan></text>
  <text
     id="text882"
     y="78.375656"
     x="213.23863"
     style="font-style:normal;font-variant:normal;font-weight:normal;font-stretch:condensed;font-size:26.54799843px;line-height:1.25;font-family:'Fira Sans Condensed';-inkscape-font-specification:'Fira Sans Condensed, Condensed';font-variant-ligatures:normal;font-variant-caps:normal;font-variant-numeric:normal;font-feature-settings:normal;text-align:center;letter-spacing:0px;word-spacing:0px;writing-mode:lr-tb;text-anchor:middle;fill:#000000;fill-opacity:1;stroke:none;stroke-width:0.66369069"
     xml:space="preserve"><tspan
       style="font-style:normal;font-variant:normal;font-weight:normal;font-stretch:condensed;font-size:26.54799843px;font-family:'Fira Sans Condensed';-inkscape-font-specification:'Fira Sans Condensed, Condensed';font-variant-ligatures:normal;font-variant-caps:normal;font-variant-numeric:normal;font-feature-settings:normal;text-align:center;writing-mode:lr-tb;text-anchor:middle;stroke-width:0.66369069"
       y="78.375656"
       x="213.23863"
       id="tspan880"
       sodipodi:role="line">Inteligência</tspan><tspan
       style="font-style:normal;font-variant:normal;font-weight:normal;font-stretch:condensed;font-size:26.54799843px;font-family:'Fira Sans Condensed';-inkscape-font-specification:'Fira Sans Condensed, Condensed';font-variant-ligatures:normal;font-variant-caps:normal;font-variant-numeric:normal;font-feature-settings:normal;text-align:center;writing-mode:lr-tb;text-anchor:middle;stroke-width:0.66369069"
       y="111.56071"
       x="213.23863"
       sodipodi:role="line"
       id="tspan884">substantiva na área</tspan></text>
  <text
     id="text888"
     y="172.01079"
     x="145.61316"
     style="font-style:normal;font-variant:normal;font-weight:normal;font-stretch:condensed;font-size:15.38577366px;line-height:1.25;font-family:'Fira Sans Condensed';-inkscape-font-specification:'Fira Sans Condensed, Condensed';font-variant-ligatures:normal;font-variant-caps:normal;font-variant-numeric:normal;font-feature-settings:normal;text-align:center;letter-spacing:0px;word-spacing:0px;writing-mode:lr-tb;text-anchor:middle;fill:#000000;fill-opacity:1;stroke:none;stroke-width:0.38463897"
     xml:space="preserve"><tspan
       style="font-style:normal;font-variant:normal;font-weight:normal;font-stretch:condensed;font-size:15.38577366px;font-family:'Fira Sans Condensed';-inkscape-font-specification:'Fira Sans Condensed, Condensed';font-variant-ligatures:normal;font-variant-caps:normal;font-variant-numeric:normal;font-feature-settings:normal;text-align:center;writing-mode:lr-tb;text-anchor:middle;stroke-width:0.38463897"
       y="172.01079"
       x="145.61316"
       id="tspan886"
       sodipodi:role="line">Desenvolvimento</tspan><tspan
       style="font-style:normal;font-variant:normal;font-weight:normal;font-stretch:condensed;font-size:15.38577366px;font-family:'Fira Sans Condensed';-inkscape-font-specification:'Fira Sans Condensed, Condensed';font-variant-ligatures:normal;font-variant-caps:normal;font-variant-numeric:normal;font-feature-settings:normal;text-align:center;writing-mode:lr-tb;text-anchor:middle;stroke-width:0.38463897"
       y="191.24297"
       x="145.61316"
       sodipodi:role="line"
       id="tspan896">de software</tspan></text>
  <text
     xml:space="preserve"
     style="font-style:normal;font-variant:normal;font-weight:normal;font-stretch:condensed;font-size:15.38577366px;line-height:1.25;font-family:'Fira Sans Condensed';-inkscape-font-specification:'Fira Sans Condensed, Condensed';font-variant-ligatures:normal;font-variant-caps:normal;font-variant-numeric:normal;font-feature-settings:normal;text-align:center;letter-spacing:0px;word-spacing:0px;writing-mode:lr-tb;text-anchor:middle;fill:#000000;fill-opacity:1;stroke:none;stroke-width:0.38463897"
     x="283.61316"
     y="176.01079"
     id="text892"><tspan
       sodipodi:role="line"
       x="283.61316"
       y="176.01079"
       style="font-style:normal;font-variant:normal;font-weight:normal;font-stretch:condensed;font-size:15.38577366px;font-family:'Fira Sans Condensed';-inkscape-font-specification:'Fira Sans Condensed, Condensed';font-variant-ligatures:normal;font-variant-caps:normal;font-variant-numeric:normal;font-feature-settings:normal;text-align:center;writing-mode:lr-tb;text-anchor:middle;stroke-width:0.38463897"
       id="tspan894">Pesquisa</tspan><tspan
       sodipodi:role="line"
       x="283.61316"
       y="195.24297"
       style="font-style:normal;font-variant:normal;font-weight:normal;font-stretch:condensed;font-size:15.38577366px;font-family:'Fira Sans Condensed';-inkscape-font-specification:'Fira Sans Condensed, Condensed';font-variant-ligatures:normal;font-variant-caps:normal;font-variant-numeric:normal;font-feature-settings:normal;text-align:center;writing-mode:lr-tb;text-anchor:middle;stroke-width:0.38463897"
       id="tspan906">tradicional</tspan></text>
  <text
     id="text902"
     y="298.71783"
     x="212.32025"
     style="font-style:normal;font-variant:normal;font-weight:normal;font-stretch:condensed;font-size:15.38577366px;line-height:1.25;font-family:'Fira Sans Condensed';-inkscape-font-specification:'Fira Sans Condensed, Condensed';font-variant-ligatures:normal;font-variant-caps:normal;font-variant-numeric:normal;font-feature-settings:normal;text-align:center;letter-spacing:0px;word-spacing:0px;writing-mode:lr-tb;text-anchor:middle;fill:#000000;fill-opacity:1;stroke:none;stroke-width:0.38463897"
     xml:space="preserve"><tspan
       style="font-style:normal;font-variant:normal;font-weight:normal;font-stretch:condensed;font-size:15.38577366px;font-family:'Fira Sans Condensed';-inkscape-font-specification:'Fira Sans Condensed, Condensed';font-variant-ligatures:normal;font-variant-caps:normal;font-variant-numeric:normal;font-feature-settings:normal;text-align:center;writing-mode:lr-tb;text-anchor:middle;stroke-width:0.38463897"
       y="298.71783"
       x="212.32025"
       id="tspan898"
       sodipodi:role="line">Machine</tspan><tspan
       id="tspan900"
       style="font-style:normal;font-variant:normal;font-weight:normal;font-stretch:condensed;font-size:15.38577366px;font-family:'Fira Sans Condensed';-inkscape-font-specification:'Fira Sans Condensed, Condensed';font-variant-ligatures:normal;font-variant-caps:normal;font-variant-numeric:normal;font-feature-settings:normal;text-align:center;writing-mode:lr-tb;text-anchor:middle;stroke-width:0.38463897"
       y="317.95001"
       x="212.32025"
       sodipodi:role="line">Learning</tspan></text>
  <g
     id="g1031"
     transform="matrix(0.13995634,0,0,0.13995634,140.07061,266.86372)">
    <path
       style="fill:#e9e8e8"
       d="m 420.81788,-70.453668 c -17.2896,-0.65677 -47.79716,-2.49782 -56,-3.37944 -4.95,-0.53202 -16.2,-1.66511 -25,-2.51799 -8.8,-0.85287 -25.225,-3.11077 -36.5,-5.01754 -41.34639,-6.9923 -66.41019,-15.16088 -76.72629,-25.005982 -3.62155,-3.45621 -4.27371,-4.68118 -4.27371,-8.0275 0,-6.35445 2.51429,-9.21008 13.03237,-14.80158 16.43341,-8.73616 43.04186,-15.54759 80.96763,-20.72671 8.525,-1.16417 16.0625,-2.27107 16.75,-2.45977 0.94419,-0.25915 1.25,-4.99902 1.25,-19.37448 0,-10.46726 -0.21344,-19.03138 -0.47432,-19.03138 -0.26088,0 -1.15701,1.32017 -1.9914,2.93371 -3.77856,7.30694 -19.37478,21.2099 -28.03428,24.99065 -12.91489,5.63865 -26.35427,7.73123 -38.82486,6.04522 -34.63797,-4.68302 -59.01137,-30.99473 -60.9607,-65.80863 l -0.35494,-6.33905 2.57025,0.55144 c 1.41364,0.3033 5.72025,1.23556 9.57025,2.07169 14.01924,3.04466 28.33952,1.62847 40.04632,-3.96035 7.5843,-3.62074 17.10636,-11.6196 15.98746,-13.43002 -0.37768,-0.6111 -0.12171,-0.9815 0.57319,-0.82944 1.56595,0.34269 7.23535,-8.85401 9.98912,-16.20398 1.13773,-3.03668 3.14766,-10.93744 4.46649,-17.55724 1.31884,-6.61979 3.30572,-14.67464 4.41528,-17.89966 9.33858,-27.14305 32.52283,-43.374 62.17737,-43.52945 6.07433,-0.0318 7.26974,-0.41376 13.6953,-4.37538 5.69235,-3.50957 19.62348,-9.67086 29.33654,-12.97461 1.40166,-0.47675 1.68651,-1.97893 1.6838,-8.87937 -0.002,-5.00273 0.61693,-10.03817 1.55634,-12.66257 2.25641,-6.30369 7.92329,-13.53609 13.35392,-17.04305 2.59538,-1.67602 5.23342,-3.4821 5.86231,-4.0135 0.6289,-0.5314 1.37389,-0.73575 1.65554,-0.4541 0.28165,0.28165 3.19669,-1.3204 6.47786,-3.56011 6.80822,-4.64725 8.68741,-5.11029 7.66491,-1.88866 -0.61767,1.94608 -0.25123,1.83362 3.36966,-1.03417 4.45235,-3.52633 17.05772,-9.61358 17.98579,-8.6855 0.31986,0.31985 -0.18089,2.70883 -1.11277,5.30884 -1.58377,4.41884 -2.37713,15.22729 -1.11771,15.22729 0.3117,0 2.02231,-1.11023 3.80137,-2.46718 3.92697,-2.99525 12.99875,-7.09279 19.1101,-8.63165 2.47333,-0.62279 4.26524,-1.50729 3.98202,-1.96555 -1.04509,-1.69099 1.69054,-14.29959 4.15971,-19.17226 1.40159,-2.76591 4.64799,-7.27362 7.21421,-10.01712 2.56623,-2.74351 4.59087,-5.27125 4.4992,-5.61722 -0.0917,-0.34596 0.093,-0.85402 0.41033,-1.12902 0.31734,-0.275 0.21721,0.12088 -0.22253,0.87973 -0.54873,0.94694 -0.36376,1.22686 0.58967,0.89237 0.76406,-0.26805 1.2577,-1.33892 1.09699,-2.37973 -0.16072,-1.0408 -0.55713,-4.90809 -0.88091,-8.59396 -1.57852,-17.9697 8.48192,-33.09364 28.24236,-42.457 6.16197,-2.9198 9.51849,-5.13682 10.47068,-6.91599 4.32512,-8.08157 20.35143,-18.5231 33.96008,-22.12582 8.8073,-2.33162 31.18511,-2.41385 39.16813,-0.14392 l 5.66813,1.6117 3.74997,-10.13369 c 4.306,-11.63627 8.60645,-20.68351 10.94146,-23.01852 3.5585,-3.55851 9.94407,-1.47344 11.8974,3.88483 0.66887,1.83482 3.52184,39.71216 3.55892,47.25 0.02,4.06823 1.17492,4.11163 8.39177,0.31534 7.1129,-3.7416 13.74823,-9.05568 12.94003,-10.36336 -0.34365,-0.55605 -0.13308,-0.70708 0.46795,-0.33563 1.10196,0.68106 6.03848,-5.22805 9.6234,-11.51939 l 1.90715,-3.34696 2.4298,7.5 c 3.32396,10.26001 2.83026,19.40618 -1.52146,28.18606 -2.23985,4.51905 -2.82632,6.68597 -2.15105,7.94773 1.39984,2.61563 1.11422,11.50786 -0.48657,15.14833 -0.77824,1.76983 -2.53295,4.56458 -3.89937,6.21055 l -2.48439,2.99267 10.64936,11.01203 c 5.85716,6.05661 12.73555,13.79872 15.28533,17.2047 2.54978,3.40597 4.86728,5.96136 5.15,5.67864 0.28272,-0.28272 0.44654,0.30346 0.36404,1.30262 -0.0825,0.99917 0.3375,1.72917 0.93333,1.62223 0.59584,-0.10695 1.09802,0.34305 1.11597,1 0.0179,0.65694 1.84817,4.36413 4.06717,8.2382 9.15171,15.9776 13.23353,29.69138 13.23353,44.46098 0,19.25554 -8.03468,32.39814 -25.17303,41.17635 -10.35713,5.3049 -19.76118,7.17942 -36.32697,7.2411 -15.04763,0.056 -23.33096,-0.9359 -37.66661,-4.51051 -4.21664,-1.05142 -7.92914,-1.91168 -8.25,-1.91168 -0.32087,0 -0.58339,26.72004 -0.58339,59.37788 0,49.26162 -0.24373,59.95238 -1.43058,62.75 -0.78682,1.85466 -4.38669,6.52212 -7.99971,10.37212 l -6.56914,7 -2.8e-4,18.53121 -2.9e-4,18.53121 17.25,2.34456 c 39.36446,5.35028 70.29887,13.09368 86.86221,21.74305 8.80043,4.59558 11.98491,8.03202 12.61384,13.61185 0.43895,3.89437 0.12294,4.84052 -2.68481,8.03837 -15.72124,17.905512 -93.36351,32.857382 -190.46861,36.679292 -22.84369,0.89909 -80.45665,1.10798 -100.07263,0.36283 z m -37.19226,-36.808352 c 1.26093,-0.82619 3.39502,-2.97184 4.74243,-4.76809 l 2.44983,-3.26593 0.30302,-31.3215 0.30302,-31.3215 76.39755,0.3215 c 54.28948,0.22846 76.71885,0.64297 77.50786,1.43238 0.76475,0.76514 1.08232,9.72417 1.02034,28.78511 -0.0974,29.9586 0.38429,33.79974 4.86783,38.8177 l 2.80145,3.13536 3.26599,-2.3256 c 6.49028,-4.62148 6.98641,-7.291 7.01098,-37.7239 l 0.022,-27.20045 11.81641,-9.41203 c 15.43827,-12.29693 24.84521,-21.1341 28.34996,-26.63285 l 2.83363,-4.44578 v -35.80422 -35.80422 l -2.75,-0.022 c -4.88017,-0.039 -10.93725,-3.54852 -13.93386,-8.07345 l -2.81614,-4.25237 -0.31595,-24.51434 c -0.28582,-22.17676 -0.49705,-24.76867 -2.21518,-27.18156 -2.7483,-3.85964 -4.38854,-10.90572 -3.56304,-15.30602 0.63165,-3.36695 0.99697,-3.73875 3.40092,-3.46121 2.47196,0.2854 2.67287,0.63886 2.44523,4.30195 -0.1364,2.19505 0.2138,5.34505 0.77823,7 1.28387,3.76439 6.68024,9.80598 8.01946,8.9783 0.54993,-0.33988 0.87623,-0.0364 0.72511,0.67439 -0.39204,1.84384 14.31217,9.0198 23.77896,11.60463 18.45019,5.03768 42.88436,6.8523 55.5865,4.12818 16.32268,-3.50058 26.85976,-18.16204 26.85976,-37.37309 0,-23.31733 -13.91392,-50.54616 -39.42269,-77.14816 -9.40225,-9.80521 -9.85083,-10.12875 -13.40258,-9.66679 -2.0211,0.26287 -9.07473,-0.24329 -15.67473,-1.12481 -18.99047,-2.53643 -35.20793,-3.06875 -40.17724,-1.31877 -4.15257,1.46237 -4.18102,1.45601 -4.81649,-1.07592 -1.7648,-7.03151 -15.23942,-19.68798 -18.69015,-17.55532 -0.64276,0.39725 -0.84935,0.24915 -0.48188,-0.34544 0.59596,-0.96427 -2.22246,-2.22277 -5.04906,-2.25455 -5.93117,-0.0667 -1.07043,19.22243 6.97907,27.69537 2.39433,2.52029 2.80231,3.50585 1.90088,4.59201 -0.63128,0.76065 -0.81418,1.75123 -0.40645,2.2013 0.40772,0.45008 0.22981,0.52613 -0.39537,0.16901 -1.37871,-0.78757 -3.64815,1.6791 -2.60463,2.83099 0.40772,0.45008 0.22127,0.52085 -0.41436,0.15727 -0.68107,-0.38957 -2.59588,1.34363 -4.66262,4.22037 -8.92375,12.42121 -9.94011,18.31039 -9.51266,55.12003 l 0.33096,28.5 -2.93115,6 c -3.68459,7.54228 -13.1012,17.01087 -21.09574,21.21218 -7.84735,4.12396 -21.91623,8.18342 -31.97311,9.22558 -4.92537,0.5104 -10.49814,1.89586 -14.5,3.60488 -8.66964,3.70243 -23.04423,4.5262 -34.635,1.98483 -9.513,-2.0858 -22.07783,-7.77475 -29.84559,-13.51313 -5.88185,-4.34518 -13.51941,-11.86892 -13.51941,-13.31793 0,-0.44794 -0.375,-0.58268 -0.83333,-0.29942 -0.45834,0.28327 -0.83334,-0.0415 -0.83334,-0.7218 0,-0.68025 -0.77459,-2.419 -1.72131,-3.86389 l -1.72132,-2.62706 -7.16193,4.41563 c -16.43114,10.13047 -25.13818,22.05603 -29.62616,40.57732 -2.05546,8.48259 -2.10212,10.6354 -2.08065,96 0.0209,83.04207 0.11335,87.52405 1.8862,91.42783 2.99893,6.6036 5.80435,8.67198 10.84941,7.99905 2.34166,-0.31233 5.28924,-1.24386 6.55017,-2.07005 z m 237.0465,-251.53402 c -5.72523,-3.90783 -7.67047,-7.22368 -8.15324,-13.89796 -0.34432,-4.76016 -0.003,-6.68278 1.7385,-9.78061 3.06344,-5.45066 8.06008,-8.57392 14.5819,-9.11476 10.50399,-0.87107 18.4786,6.81204 18.4786,17.80315 0,5.9288 -1.71066,9.72749 -6.00955,13.34476 -6.05571,5.09554 -14.58518,5.77564 -20.63621,1.64542 z m 20.63559,-48.25 c -5.02661,-3.42108 -7.29847,-7.09074 -7.40005,-11.95309 -0.0824,-3.94577 0.12974,-4.32227 2.59657,-4.60719 2.33583,-0.26979 2.81756,0.16491 3.69189,3.33147 2.24973,8.14784 10.92603,11.37117 15.04345,5.58879 1.13183,-1.58951 2.62693,-4.62701 3.32245,-6.75 1.01922,-3.11104 1.7488,-3.85998 3.76022,-3.85998 2.01009,0 2.55993,0.56327 2.82607,2.89514 0.49304,4.31992 -2.50807,11.11464 -6.43014,14.55826 -2.93669,2.57845 -4.28695,3.0466 -8.7872,3.0466 -3.86806,0 -6.21837,-0.61325 -8.62326,-2.25 z m -226.98983,271.64235 c 0,-0.82763 -1.94173,-1.29565 -2.38691,-0.57533 -0.28881,0.46731 0.13009,0.84965 0.9309,0.84965 0.8008,0 1.45601,-0.12345 1.45601,-0.27432 z m -2.55279,-3.47776 c -0.32197,-0.52097 -1.01165,-0.68378 -1.53262,-0.3618 -0.52097,0.32197 -0.68378,1.01165 -0.3618,1.53262 0.32197,0.52097 1.01165,0.68378 1.53262,0.3618 0.52097,-0.32197 0.68378,-1.01165 0.3618,-1.53262 z m 175.35966,-1.44105 c -0.30789,-0.30789 -0.86705,0.24711 -1.24258,1.23333 -0.54268,1.4252 -0.42782,1.54006 0.5598,0.5598 0.68342,-0.67834 0.99067,-1.48524 0.68278,-1.79313 z m 2.3152,-5.14854 c -0.87155,-1.49877 -1.06669,-1.54197 -1.09166,-0.24167 -0.0323,1.68408 1.01919,3.2004 1.72792,2.49167 0.23375,-0.23375 -0.0526,-1.24625 -0.63626,-2.25 z m -73.12192,-20.075 -1.5e-4,-6.25 h -44.5 -44.5 l 9.8e-4,6.25 9.9e-4,6.25 h 44.49916 44.49916 z m 57.98794,-2.66191 c -1.79774,-1.79774 -1.02455,-2.93106 0.84524,-1.23892 1.56319,1.41466 1.83334,1.4375 1.83334,0.15499 0,-0.82729 -0.2211,-1.28306 -0.49133,-1.01284 -0.27023,0.27023 -1.03552,0.0397 -1.70065,-0.51233 -0.83637,-0.69412 -1.59642,-0.53724 -2.46446,0.50868 -1.01643,1.22473 -0.99412,1.51524 0.11733,1.52764 1.08407,0.0121 1.05992,0.21291 -0.11495,0.95574 -1.17053,0.74008 -1.01329,0.9047 0.73809,0.77278 1.46578,-0.11042 1.88818,-0.50495 1.23739,-1.15574 z m -174.98809,-2.58809 c 0,-0.55 -0.19844,-1 -0.44098,-1 -0.24254,0 -0.7191,0.45 -1.05902,1 -0.33992,0.55 -0.14148,1 0.44098,1 0.58246,0 1.05902,-0.45 1.05902,-1 z m 185.61532,-5.58475 c 0.1648,-1.12288 -0.10974,-1.24981 -1.03762,-0.47973 -0.69395,0.57592 -1.65548,0.71353 -2.13674,0.3058 -0.48126,-0.40772 -0.26323,0.0571 0.48451,1.03285 1.45075,1.8932 2.32699,1.61341 2.68985,-0.85892 z m 6.19155,-7.94171 c -0.30789,-0.30789 -0.86705,0.24711 -1.24258,1.23333 -0.54268,1.4252 -0.42782,1.54006 0.5598,0.5598 0.68342,-0.67834 0.99067,-1.48524 0.68278,-1.79313 z"
       id="path973"
       inkscape:connector-curvature="0" />
    <path
       style="fill:#da8bb1"
       d="m 346.74714,-100.68885 c -4.82266,-2.19041 -10.08304,-8.21517 -11.44424,-13.10719 -0.55176,-1.98298 -0.97628,-19.74795 -0.97944,-40.98665 l -0.006,-37.48665 -3.6759,5.48665 c -8.28644,12.36835 -20.60113,21.7018 -35.22773,26.6995 -10.2168,3.49094 -26.50734,4.2864 -37.53563,1.83283 -9.15179,-2.03608 -20.95968,-7.80729 -28.75163,-14.05262 -14.49376,-11.6169 -24.73743,-32.6112 -24.79175,-50.81045 -0.0152,-5.08269 0.20365,-5.74948 1.73264,-5.27971 12.41784,3.81531 29.52064,4.70362 39.7899,2.06665 13.02078,-3.34351 23.47443,-10.79719 30.60736,-21.82373 5.06526,-7.83019 7.54659,-14.78243 10.41532,-29.18182 4.47645,-22.46918 9.05857,-32.12897 20.9009,-44.06223 12.1125,-12.2055 24.85235,-17.47435 43.01006,-17.78774 8.54697,-0.14751 9.35512,-0.3557 15.21357,-3.91911 7.43443,-4.52201 17.50444,-9.186 26.21585,-12.14205 l 6.40295,-2.17272 -0.21137,-7.99642 c -0.26266,-9.93652 2.18593,-17.14866 8.10522,-23.87333 4.36894,-4.96338 11.27244,-9.87015 13.79439,-9.80458 0.82822,0.0215 2.63085,-0.95685 4.00585,-2.17418 1.375,-1.21733 4.1875,-3.22165 6.25,-4.45404 l 3.75,-2.24072 v 2.65948 2.65949 l 4.21273,-3.60594 c 4.33587,-3.71135 13.49301,-8.54991 16.18099,-8.54991 1.32046,0 1.34697,0.48706 0.20416,3.75 -1.79764,5.13258 -2.85707,12.85801 -2.09329,15.26446 0.6011,1.8939 0.84283,1.84259 5.09167,-1.08069 5.0844,-3.49816 13.22848,-7.27094 19.11962,-8.85726 l 4.01573,-1.08133 0.4876,-6.74759 c 0.63674,-8.81149 4.90146,-17.32806 12.28889,-24.54068 l 5.53562,-5.40462 -1.14014,-5.31626 c -2.14169,-9.98639 0.71566,-21.61256 7.62497,-31.02493 4.45364,-6.06706 15.1384,-13.83986 23.18554,-16.86668 4.84189,-1.82121 6.32363,-2.99477 9.08156,-7.19274 5.74187,-8.7399 20.86518,-17.94752 34.16232,-20.79925 10.20913,-2.18946 21.978,-2.44865 31.2964,-0.68923 4.81491,0.90911 9.36775,1.8883 10.11744,2.17598 0.9641,0.36996 2.62041,-2.63992 5.65868,-10.28306 8.60291,-21.64168 11.3686,-25.42671 17.46167,-23.89745 4.38918,1.10162 5.30451,5.24665 6.99193,31.66255 0.85368,13.3641 1.70163,24.44784 1.88433,24.63054 0.1827,0.1827 3.93302,-1.4701 8.33404,-3.67288 9.08252,-4.54595 16.76967,-11.51398 20.98808,-19.0247 1.5452,-2.75118 3.08536,-5.0026 3.42257,-5.00316 1.63287,-0.003 4.38334,12.04335 4.33803,18.99898 -0.041,6.29166 -0.57319,8.63497 -3.30335,14.54457 -2.7532,5.9595 -3.09225,7.47132 -2.20114,9.8151 2.41693,6.35702 0.0446,15.48159 -5.34047,20.54057 l -2.37612,2.23226 9.66474,9.68375 c 20.93091,20.97209 34.70513,43.35752 40.30519,65.50273 1.6249,6.42565 1.95054,10.19104 1.58742,18.35575 -0.41548,9.34185 -0.78951,10.94492 -4.13131,17.70659 -6.34287,12.83394 -17.68352,21.1252 -35.1561,25.70299 -15.08886,3.95325 -41.54067,2.65985 -62.07982,-3.03548 l -6.42018,-1.78027 v 59.40556 c 0,68.26933 0.79008,62.51062 -10.13757,73.89063 l -5.86243,6.10511 -0.022,23.91507 c -0.0201,21.88069 -0.19491,24.29634 -2.05499,28.39709 -1.11816,2.46511 -2.79578,5.32549 -3.72804,6.35641 -2.88426,3.1895 -9.2861,5.85949 -15.37262,6.41139 l -5.82235,0.52796 -0.022,5.11111 c -0.0404,9.39799 -6.36196,18.23529 -14.70071,20.550982 -4.90369,1.36177 -19.69501,1.34951 -24.62862,-0.0204 -5.05181,-1.402742 -11.83941,-8.249322 -13.41887,-13.535472 -0.84173,-2.81726 -1.2298,-12.67796 -1.2298,-31.25002 v -27.13398 h -44.5 -44.5 v 14.32069 c 0,13.63995 -0.13072,14.57871 -2.75,19.74896 -4.16284,8.21709 -10.98153,11.91307 -22,11.92477 l -5.25,0.006 v 5.03212 c 0,8.98552 -4.63711,16.43162 -12.5,20.07202 -5.86181,2.713932 -32.09751,2.716032 -38.07074,0.003 z m 36.07092,-6.10728 c 2.63318,-1.2747 4.92376,-3.40948 6.31573,-5.88615 2.11327,-3.76005 2.18409,-4.87879 2.18409,-34.49991 v -30.61385 l 65.75,-3.3e-4 65.75,-3.3e-4 v 31.32634 31.32633 l 2.88182,3.7801 c 4.17946,5.48221 8.17897,6.81492 19.23116,6.40815 9.95218,-0.36628 12.52764,-1.4719 16.82523,-7.22291 1.94077,-2.59712 2.09114,-4.45348 2.56179,-31.62572 l 0.5,-28.86666 13,-10.44002 c 14.52974,-11.66852 24.61225,-21.18103 27.54054,-25.98359 1.88061,-3.08431 1.95028,-5.4134 1.90552,-63.70136 l -0.0465,-60.5 -6.00223,-2.84486 c -8.64522,-4.09754 -16.30125,-11.90874 -18.31348,-18.68463 -1.75099,-5.89624 -1.23598,-11.78305 1.10961,-12.68313 2.32104,-0.89067 3.7507,1.44244 3.44851,5.62772 -0.72281,10.01092 8.86049,18.84926 27.20244,25.08783 23.06138,7.84377 47.68745,9.68087 66.30967,4.94668 33.24692,-8.45212 43.27874,-36.59679 25.90228,-72.66981 -2.44277,-5.07112 -6.33559,-12.04612 -8.65071,-15.5 -8.75795,-13.06584 -22.84002,-29.33851 -31.04353,-35.87265 -3.60786,-2.87367 -3.67383,-2.88483 -8,-1.35375 -6.07088,2.14857 -13.88744,2.15809 -31.67909,0.0386 -14.4748,-1.72437 -31.47948,-1.83623 -35.18306,-0.23145 -1.09031,0.47243 -1.98392,-0.52953 -3.27178,-3.66846 -4.26491,-10.395 -23.96701,-22.44529 -26.38699,-16.13894 -1.70834,4.45187 4.39041,21.02465 9.68568,26.31992 l 2.88939,2.88939 -4.07831,4.28719 c -6.37667,6.70328 -10.7484,14.32429 -13.03709,22.72688 -1.89003,6.93898 -2.07308,9.9073 -1.80214,29.22348 0.16587,11.825 0.34651,25.10995 0.40141,29.52211 0.089,7.14903 -0.25584,8.74446 -3.1682,14.65933 -8.19909,16.65201 -26.91996,27.29661 -54.23197,30.83604 -3.575,0.4633 -9.875,2.09647 -14,3.62929 -6.61032,2.45633 -8.86417,2.78577 -19,2.77718 -13.50326,-0.0114 -20.67123,-1.66239 -32.58263,-7.50456 -4.44545,-2.18035 -11.07162,-6.42972 -14.72481,-9.44304 -6.60917,-5.45156 -16.2257,-17.76804 -17.34024,-22.20873 -0.69932,-2.7863 -0.8016,-2.76437 -15.15496,3.24971 -25.3856,10.6366 -37.60392,22.68777 -43.34233,42.74942 l -2.355,8.23324 v 90.07763 90.07762 l 2.87912,3.77494 c 4.28373,5.61658 7.21914,6.48577 22.05516,6.53067 10.94309,0.0331 13.57032,-0.26877 17.0659,-1.96095 z M 620.65472,-359.3104 c -4.75012,-2.84726 -8.33684,-9.12402 -8.33684,-14.58947 0,-4.7897 3.83294,-11.93687 7.82326,-14.58781 15.0113,-9.97265 33.27401,6.60602 24.9921,22.68752 -4.49177,8.72195 -15.76732,11.71133 -24.47852,6.48976 z m 21.51097,-47.50355 c -4.50224,-2.37861 -8.10332,-7.98579 -8.24286,-12.83482 -0.087,-3.02404 0.26699,-3.70023 2.07174,-3.95721 1.72367,-0.24544 2.57798,0.58705 4.10482,4 2.46201,5.50332 5.45736,8.14327 9.23954,8.14327 4.02638,0 7.72415,-3.66704 9.36205,-9.28426 1.09736,-3.76342 1.74012,-4.54907 3.72167,-4.54907 2.14999,0 2.38751,0.42003 2.31982,4.10249 -0.22944,12.48211 -11.99012,19.97272 -22.57678,14.3796 z m -228.14636,272.05839 c 5.65469,-3.44786 6.7167,-6.84582 7.12298,-22.79048 l 0.3631,-14.25 h -12.09377 -12.09376 v 19.5 19.5 l 6.75,-0.004 c 4.92971,-0.003 7.61334,-0.53015 9.95145,-1.95578 z m 170.11658,-0.0709 c 2.00302,-1.2212 4.09199,-3.77261 5.27089,-6.43771 1.75931,-3.97721 1.92602,-6.39173 1.68197,-24.36163 l -0.27089,-19.94686 -10.24273,8.13831 -10.24273,8.13831 -0.007,18.25 -0.007,18.25 5.25,-0.004 c 3.50439,-0.002 6.35324,-0.67636 8.56803,-2.02667 z"
       id="path971"
       inkscape:connector-curvature="0" />
    <path
       style="fill:#77b4c7"
       d="m 347.81788,-100.28652 c -4.90848,-1.72126 -10.73458,-8.01141 -12.31921,-13.30042 -0.81634,-2.72471 -1.18079,-15.47416 -1.18079,-41.30725 v -37.36612 l -2.6742,3.98214 c -13.8694,20.65287 -33.93237,31.48213 -58.3258,31.48213 -15.91021,0 -29.29319,-4.41791 -42.00241,-13.86557 -15.77407,-11.72599 -26.92336,-33.40115 -26.98023,-52.45182 -0.0152,-5.08269 0.20365,-5.74948 1.73264,-5.27971 11.67063,3.58574 28.10001,4.65053 38.45078,2.49202 16.69418,-3.48136 31.42433,-16.58605 37.80126,-33.62991 1.13728,-3.03965 3.34985,-11.68277 4.91682,-19.20693 4.61631,-22.16619 9.81838,-32.71271 21.72912,-44.05294 11.50644,-10.95529 24.59874,-16.06752 41.68922,-16.27866 8.47279,-0.10467 9.53933,-0.35173 14.1628,-3.28079 7.42879,-4.70627 12.90716,-7.34133 23.90068,-11.49604 l 9.90068,-3.7417 -0.2091,-7.91032 c -0.27345,-10.34486 2.27494,-17.37083 8.90249,-24.54429 5.12684,-5.54915 13.00525,-10.75106 13.00525,-8.58703 0,0.67431 1.4625,-0.14158 3.25,-1.8131 1.7875,-1.67152 4.9375,-4.04649 7,-5.27773 l 3.75,-2.2386 v 2.65948 2.65949 l 4.21273,-3.60594 c 4.33587,-3.71135 13.49301,-8.54991 16.18099,-8.54991 1.32046,0 1.34697,0.48706 0.20416,3.75 -1.79764,5.13258 -2.85707,12.85801 -2.09329,15.26446 0.6011,1.8939 0.84283,1.84259 5.09167,-1.08069 5.0844,-3.49816 13.22848,-7.27094 19.11962,-8.85726 l 4.01573,-1.08133 0.4876,-6.74759 c 0.63674,-8.81149 4.90146,-17.32806 12.28889,-24.54068 l 5.53562,-5.40462 -1.14014,-5.31626 c -2.16019,-10.07262 0.78187,-21.87353 7.76176,-31.13327 4.62144,-6.13096 15.13411,-13.77831 23.04875,-16.76662 4.79585,-1.81076 6.37839,-3.05364 9.24836,-7.26337 11.29767,-16.57163 40.38375,-26.10866 65.29192,-21.40857 4.81491,0.90856 9.36775,1.8873 10.11744,2.17498 0.9641,0.36996 2.62041,-2.63992 5.65868,-10.28306 8.60291,-21.64168 11.3686,-25.42671 17.46167,-23.89745 4.38918,1.10162 5.30451,5.24665 6.99193,31.66255 0.85368,13.3641 1.70163,24.44784 1.88433,24.63054 0.1827,0.1827 3.95755,-1.48238 8.38856,-3.70017 9.0702,-4.53978 17.48553,-12.21257 21.31814,-19.43713 1.3318,-2.51045 2.69417,-4.56446 3.02749,-4.56446 0.33332,0 1.62848,3.44409 2.87813,7.65353 2.86276,9.64327 2.30045,16.90737 -2.03728,26.3182 -2.56567,5.5663 -2.88285,7.05749 -1.99681,9.38794 2.41693,6.35702 0.0446,15.48159 -5.34047,20.54057 l -2.37612,2.23226 9.66474,9.68375 c 21.08494,21.12643 35.54048,44.89059 40.72293,66.94644 1.11098,4.72816 1.45331,9.78601 1.14795,16.96058 -0.39622,9.30953 -0.76353,10.88778 -4.10958,17.65805 -6.34287,12.83394 -17.68352,21.1252 -35.1561,25.70299 -15.16547,3.97332 -41.99117,2.6377 -62.01103,-3.08746 l -6.48897,-1.85568 v 59.46925 c 0,68.34222 0.79075,62.57362 -10.13757,73.95433 l -5.86243,6.10511 v 24.05088 24.05088 l -2.79422,5.34875 c -3.67143,7.02791 -9.61204,10.83409 -18.11273,11.60491 l -6.09305,0.5525 -0.022,5.11111 c -0.0404,9.39799 -6.36196,18.23529 -14.70071,20.550982 -4.90369,1.36177 -19.69501,1.34951 -24.62862,-0.0204 -5.50969,-1.529882 -12.02224,-8.374432 -13.48119,-14.168432 -0.74429,-2.95602 -1.16748,-14.26291 -1.16748,-31.19386 v -26.55718 h -44.41025 -44.41025 l -0.33975,15.3318 c -0.33393,15.06932 -0.39181,15.416 -3.38072,20.25 -4.14671,6.70652 -9.55695,9.5965 -19.11343,10.2098 l -7.3456,0.47141 -0.022,5.1185 c -0.0404,9.40526 -6.35919,18.2419 -14.70071,20.558362 -5.64292,1.56705 -29.93876,1.26641 -34.77733,-0.430352 z m 35.21772,-6.61492 c 2.97955,-1.44237 4.96847,-3.31932 6.31573,-5.96016 1.82833,-3.58382 1.96655,-6.00134 1.96655,-34.3946 v -30.53984 l 65.75,-2.8e-4 65.75,-2.8e-4 v 31.32693 31.32694 l 2.88182,3.77945 c 4.17973,5.48163 8.1794,6.81426 19.23116,6.4075 9.95218,-0.36628 12.52764,-1.4719 16.82523,-7.22291 1.94077,-2.59712 2.09114,-4.45348 2.56179,-31.62572 l 0.5,-28.86666 13,-10.44002 c 14.52974,-11.66852 24.61225,-21.18103 27.54054,-25.98359 1.88061,-3.08431 1.95028,-5.4134 1.90552,-63.70136 l -0.0465,-60.5 -6.00223,-2.84486 c -8.80462,-4.17309 -16.3412,-11.93419 -18.37175,-18.91905 -1.95915,-6.73923 -1.04363,-12.23609 2.03796,-12.23609 1.61538,0 2.02553,0.91186 2.47383,5.5 0.29557,3.025 1.2919,6.9089 2.21408,8.63088 5.88374,10.98674 29.63205,20.52247 58.24852,23.38871 31.13962,3.11896 55.56942,-6.52692 64.06943,-25.29722 4.20295,-9.28125 4.5841,-21.35938 1.06155,-33.63959 -5.54344,-19.32539 -18.00769,-39.13132 -37.07096,-58.90643 -9.89157,-10.26094 -11.69736,-11.45863 -15.22502,-10.09806 -6.85079,2.64225 -12.74518,2.797 -29.335,0.77016 -15.80027,-1.93038 -35.21491,-2.18071 -39,-0.50287 -1.09541,0.48557 -1.9779,-0.49988 -3.27178,-3.6535 -4.26491,-10.395 -23.96701,-22.44529 -26.38699,-16.13894 -1.70834,4.45187 4.39041,21.02465 9.68568,26.31992 l 2.88939,2.88939 -3.88924,4.08844 c -13.96119,14.67626 -17.42713,29.93301 -15.0473,66.23674 1.07699,16.42925 1.03616,19.34389 -0.33691,24.05345 -5.73204,19.66051 -26.09529,32.91767 -56.64285,36.8764 -3.575,0.4633 -9.875,2.09647 -14,3.62929 -6.61032,2.45633 -8.86417,2.78577 -19,2.77718 -13.09633,-0.0111 -20.44146,-1.63022 -31.61369,-6.96877 -15.51584,-7.41411 -26.53518,-18.5097 -34.03767,-34.27321 -0.4173,-0.87678 -21.91494,8.38669 -29.12363,12.54955 -17.61237,10.17078 -26.80118,23.62828 -30.22656,44.26848 -0.7298,4.39758 -0.98487,34.50361 -0.78857,93.07827 l 0.29015,86.57826 2.87912,3.7743 c 4.28399,5.61597 7.21959,6.48513 22.05516,6.53003 11.15674,0.0338 13.53197,-0.2502 17.28344,-2.06626 z M 620.65472,-359.3104 c -4.75012,-2.84726 -8.33684,-9.12402 -8.33684,-14.58947 0,-4.7897 3.83294,-11.93687 7.82326,-14.58781 15.03265,-9.98683 33.43955,6.76672 24.93101,22.69164 -4.6799,8.75908 -15.72862,11.69379 -24.41743,6.48564 z m 16.78109,-4.58403 c 5.84906,-4.13269 6.41322,-13.832 1.11284,-19.13238 -5.67732,-5.67732 -15.01461,-4.45182 -19.27125,2.52932 -7.0963,11.63832 6.97526,24.50459 18.15841,16.60306 z m 4.88207,-42.87956 c -4.57114,-2.46784 -8.24437,-8.06677 -8.38698,-12.78384 -0.1003,-3.31756 0.15892,-3.73821 2.30365,-3.73821 1.80561,0 2.65892,0.75855 3.37476,3 1.23448,3.86544 5.25665,8.16976 8.36268,8.94932 3.52575,0.88491 8.01462,-2.16412 9.81667,-6.66791 0.84107,-2.10203 1.52922,-4.45745 1.52922,-5.23426 0,-1.64714 3.46845,-2.9937 5.10533,-1.98205 1.5421,0.95307 0.53995,7.56426 -1.84816,12.19239 -3.96904,7.69192 -12.64406,10.37468 -20.25717,6.26456 z m -227.56716,271.61391 c 5.05044,-3.30917 6.52063,-8.56215 6.5452,-23.38596 l 0.022,-13.25 h -12 -12 v 19.43045 c 0,19.38866 0.005,19.43114 2.25,19.7503 4.28561,0.60922 12.46034,-0.76094 15.18284,-2.54479 z m 170.28339,-0.18568 c 1.35897,-0.89043 3.33816,-3.57966 4.3982,-5.97607 1.728,-3.90642 1.89933,-6.42031 1.65646,-24.30396 l -0.27089,-19.94687 -10.24273,8.13831 -10.24273,8.13831 -0.007,18.18664 -0.007,18.18664 3.25,0.32883 c 3.98566,0.40326 8.19143,-0.6061 11.46623,-2.75183 z m -294.21623,-30.61901 c 11.02196,-3.21305 18.22446,-7.54825 26.61488,-16.01956 5.81955,-5.87565 8.64875,-9.7658 12,-16.5 l 4.38512,-8.81171 0.12626,-38.33578 c 0.12565,-38.14846 0.11685,-38.32193 -1.80097,-35.5 -6.30047,9.27066 -10.00163,20.18491 -12.40254,36.57349 -2.92419,19.96062 -8.28339,31.85475 -19.31059,42.85772 -11.73439,11.70861 -24.58242,16.85934 -42.13003,16.88979 -7.61089,0.0132 -8.94187,-0.27211 -12.5,-2.6796 -7.39144,-5.00117 -7.32613,-5.05428 5.56246,-4.52346 7.26698,0.29929 14.33867,0.0203 18.1753,-0.71713 22.05695,-4.23932 38.34991,-22.56581 42.29883,-47.57815 4.10628,-26.00902 9.49286,-40.67233 18.54185,-50.4745 3.30645,-3.58166 4.53066,-6.00423 6.06401,-12 2.34328,-9.16282 6.65282,-18.57891 11.56715,-25.27357 l 3.68205,-5.01596 -5.93689,0.72077 c -7.60908,0.92378 -19.28413,4.80639 -24.70542,8.21593 -2.32731,1.46369 -6.70647,5.22486 -9.73147,8.35815 -9.16662,9.49478 -14.4023,22.23304 -19.06591,46.38683 -2.71815,14.07786 -10.5035,28.39851 -20.22185,37.19682 -6.16746,5.58359 -18.83275,11.79566 -27.1459,13.31453 -7.43917,1.35919 -20.64281,1.39714 -27.59171,0.0793 -2.91409,-0.55265 -5.52274,-0.78042 -5.79699,-0.50616 -0.27426,0.27426 0.0709,3.08892 0.76701,6.25481 7.86473,35.76837 43.69955,57.24838 78.55535,47.08743 z M 508.0025,-325.24621 c 16.27969,-3.46397 28.65442,-10.11025 35.35658,-18.98946 6.36211,-8.42873 6.29613,-7.98374 6.38511,-43.06037 0.0768,-30.2712 0.20059,-32.35116 2.29156,-38.5 2.32404,-6.83423 6.8506,-14.76039 10.88029,-19.05175 l 2.39615,-2.55175 -3.46689,-6.44825 c -4.66308,-8.6731 -7.05017,-19.2932 -5.57114,-24.78589 0.6056,-2.24902 2.08831,-4.78061 3.29491,-5.62575 6.91725,-4.84503 23.76648,2.62462 32.23119,14.28882 l 3.24128,4.4664 8.38817,-0.18316 c 8.40466,-0.18351 20.98177,0.84858 36.88817,3.02708 7.25907,0.99419 9.30296,0.92901 14,-0.44644 14.00226,-4.10034 20.0783,-13.16619 15.39969,-22.97734 -1.55961,-3.27054 -1.52333,-3.4812 1.4267,-8.28393 3.16317,-5.14971 5.60505,-12.94926 5.01438,-16.01631 -0.28466,-1.47816 -1.23194,-1.00503 -5.40079,2.69751 -6.21686,5.52145 -11.03601,8.54526 -18.33211,11.50262 l -5.60787,2.27307 -0.5,5.80753 c -0.46702,5.42444 -0.73088,5.92769 -4,7.629 -2.88936,1.50366 -5.07023,1.73413 -12.5,1.32097 -15.67511,-0.87168 -26.84117,-5.82441 -26.69347,-11.83994 0.0311,-1.26637 2.07199,-7.37076 4.53531,-13.56531 5.14609,-12.94094 5.4075,-12.26079 -5.42375,-14.11215 -25.50002,-4.35866 -52.68749,6.00302 -61.77822,23.54488 -0.61848,1.19346 -2.81547,2.7178 -4.88219,3.38743 -12.19878,3.95246 -23.6402,13.05895 -28.30159,22.52587 -2.00882,4.07977 -2.41035,6.36381 -2.35862,13.41679 0.0443,6.04357 0.55147,9.36698 1.75486,11.5 l 1.69251,3 -4.27242,3.4928 c -11.42361,9.33904 -16.03458,17.19738 -16.00268,27.27284 0.0109,3.4289 0.1796,6.86181 0.375,7.6287 0.24883,0.97663 -1.68737,1.9224 -6.46331,3.15708 -3.75022,0.96951 -8.25022,2.33621 -10,3.0371 -5.25372,2.10444 -13.78498,7.85766 -18.07043,12.18615 l -4.02833,4.06879 -1.43652,-3.42173 c -0.79008,-1.88195 -1.654,-6.90923 -1.91982,-11.17173 -0.26581,-4.2625 -0.82312,-7.75 -1.23845,-7.75 -1.21404,0 -7.71981,7.58335 -9.60016,11.19026 -2.58535,4.95928 -3.043,17.29034 -0.88837,23.93637 3.86216,11.91291 12.39806,23.08601 23.80849,31.1642 15.90483,11.26006 32.05965,14.94372 49.37678,11.259 z m 132.31538,-181.51257 v -5.96274 l -5.8188,-3.95147 -5.8188,-3.95147 -1.77669,3.29912 c -0.97718,1.81451 -1.61634,4.13171 -1.42037,5.14933 0.33738,1.75185 12.16693,11.37997 13.98196,11.37997 0.46898,0 0.8527,-2.68323 0.8527,-5.96274 z m -16.5,-9.03726 c -0.33992,-0.55 -1.15398,-0.99311 -1.80902,-0.98469 -0.71561,0.009 -0.59227,0.40223 0.30902,0.98469 1.92112,1.24152 2.2673,1.24152 1.5,0 z"
       id="path969"
       inkscape:connector-curvature="0" />
    <path
       style="fill:#e8a843"
       d="m 349.2393,-100.16317 c -4.43564,-1.58573 -7.28907,-3.54983 -9.73556,-6.70127 -4.72568,-6.08738 -4.66122,-5.5104 -5.18586,-46.41207 l -0.5,-38.98047 -3.31719,5.17273 c -4.23413,6.60257 -15.31719,17.07516 -22.28274,21.05539 -13.282,7.58954 -31.65665,10.87122 -46.46073,8.29779 -22.93897,-3.98753 -43.16197,-20.10005 -52.16869,-41.56497 -2.5707,-6.12651 -5.27065,-18.86038 -5.27065,-24.85813 v -4.44244 l 7.08804,1.82322 c 19.81162,5.09603 36.55178,2.82672 51.78702,-7.0203 11.55558,-7.46873 20.12201,-22.55263 23.56997,-41.50235 2.09978,-11.5402 4.06639,-18.51518 7.33078,-26 10.35324,-23.7387 31.29582,-37.48677 57.13415,-37.50659 7.04342,-0.005 9.13019,-0.37893 11.59004,-2.07461 5.09555,-3.51257 22.4082,-11.7739 29.37719,-14.01834 l 6.62281,-2.13295 v -9.13376 c 0,-7.74517 0.39377,-9.9699 2.59016,-14.63375 1.42459,-3.025 3.75952,-6.88219 5.18873,-8.57154 3.21224,-3.7969 10.20237,-8.72448 12.63005,-8.90333 0.99464,-0.0733 3.55953,-1.5063 5.69975,-3.18449 3.94302,-3.0918 7.70495,-5.34064 8.93398,-5.34064 0.37078,0 0.39179,1.125 0.0467,2.5 -0.34511,1.375 -0.45045,2.5 -0.2341,2.5 0.21634,0 2.13742,-1.60242 4.26905,-3.56093 3.5896,-3.29809 14.79126,-9.43907 17.21762,-9.43907 0.65652,0 0.4816,1.37476 -0.46238,3.63402 -1.86933,4.47394 -3.10127,17.36598 -1.65946,17.36598 0.5556,0 2.08337,-0.81416 3.39504,-1.80925 4.57927,-3.47402 10.23971,-6.31932 17.28599,-8.68905 l 7.09887,-2.38742 0.76718,-6.75478 c 1.07533,-9.46804 4.54262,-16.35659 11.95897,-23.75924 l 6.27385,-6.26226 -1.24864,-5.919 c -2.58582,-12.25769 2.3574,-26.13806 12.7278,-35.73922 5.47897,-5.07256 18.46346,-12.67978 21.64265,-12.67978 0.74421,0 2.42971,-1.70546 3.74557,-3.78991 6.31766,-10.00783 21.64849,-19.80782 35.76753,-22.86384 9.70124,-2.09981 26.40909,-2.07684 35.28912,0.0485 3.80822,0.91145 7.26058,1.308 7.67191,0.88122 0.41134,-0.42678 3.04405,-6.5907 5.85047,-13.69758 2.80643,-7.10689 5.99932,-14.37255 7.09532,-16.14592 3.86513,-6.2539 10.86528,-5.00241 12.94036,2.31349 0.58563,2.06472 1.66422,14.00152 2.39686,26.52621 0.73263,12.5247 1.61769,23.0578 1.96679,23.4069 1.16853,1.16854 15.38395,-6.63051 20.54763,-11.27311 2.80714,-2.52386 6.55964,-7.02269 8.33889,-9.9974 1.77925,-2.97471 3.51827,-5.40856 3.86448,-5.40856 0.34621,0 1.39759,2.44203 2.33639,5.42672 3.07215,9.76714 1.7543,23.0597 -3.00653,30.32565 -1.26767,1.93471 -1.31128,3.18556 -0.2844,8.15724 1.05574,5.11139 0.98627,6.46547 -0.53625,10.45214 -0.96202,2.519 -3.07084,5.99491 -4.68627,7.72423 l -2.93714,3.14423 11.75873,12.20465 c 13.73854,14.25955 21.32495,24.49603 28.72782,38.76294 13.47449,25.96823 15.05878,48.39224 4.56599,64.62664 -4.77213,7.38341 -9.54483,11.33408 -19.53508,16.17046 -10.45047,5.05917 -20.38041,7.00609 -35.70784,7.00108 -15.35221,-0.005 -27.72075,-1.86273 -44.01216,-6.61046 -1.61105,-0.4695 -1.73774,3.32378 -2,59.88058 l -0.28,60.38183 -2.92448,4.42604 c -1.60847,2.43432 -5.36465,6.98751 -8.34707,10.1182 l -5.42258,5.69218 0.31049,23.30782 c 0.35842,26.90609 -0.006,28.78011 -6.74781,34.71462 -4.33866,3.81904 -10.59971,6.09321 -16.77531,6.09321 -2.09521,0 -2.36863,0.57704 -2.96152,6.25 -0.84444,8.08005 -4.61749,14.35509 -10.67269,17.75 -4.03675,2.263242 -5.5481,2.500002 -15.95903,2.500002 -12.43215,0 -15.25565,-0.846562 -20.57932,-6.170232 -5.15773,-5.15773 -5.42068,-6.99122 -5.42068,-37.79765 v -28.53212 H 471.6976 426.07732 l 0.71605,12.41465 c 0.89082,15.44477 -0.45834,21.2682 -6.18211,26.68404 -5.29403,5.00922 -10.08458,6.61598 -20.40449,6.84369 -2.45363,0.0541 -2.64369,0.41688 -3.15126,6.01444 -0.93529,10.31452 -6.54436,17.50619 -15.62,20.027152 -5.20325,1.44532 -27.86244,1.19822 -32.19621,-0.351102 z m 35.75914,-7.20395 c 6.08513,-4.46998 6.31618,-5.90278 6.31789,-39.17892 l 0.002,-30.25 65.75,-7.8e-4 65.75,-7.7e-4 -0.30595,29.56947 c -0.29204,28.2246 -0.21179,29.75964 1.76453,33.75077 3.44591,6.95895 5.94954,8.13587 18.04142,8.48102 11.62528,0.33183 15.49428,-0.90472 19.46782,-6.22201 1.90432,-2.54832 2.06364,-4.55348 2.53218,-31.86961 l 0.5,-29.1502 8,-6.3598 c 15.05345,-11.96712 24.82763,-20.69894 29.66346,-26.50001 l 4.83654,-5.80191 -0.002,-61.19809 -0.002,-61.19808 -5.74763,-2.97387 c -7.66686,-3.96689 -15.76183,-11.68725 -17.77126,-16.94885 -0.88601,-2.32 -1.46695,-6.20509 -1.29275,-8.64537 0.26548,-3.71875 0.67845,-4.48333 2.56639,-4.75146 2.08193,-0.29568 2.25,0.0628 2.25,4.79966 0,6.25665 1.59789,9.52045 7.09043,14.48262 13.13893,11.87024 49.84507,20.64009 74.65038,17.83552 43.64787,-4.93496 57.96187,-34.40131 37.30664,-76.79825 -6.64351,-13.63647 -16.27202,-26.72018 -30.15065,-40.97022 l -11.65823,-11.97023 -5.45718,1.72023 c -6.78539,2.1389 -13.9925,2.16981 -29.32293,0.12576 -7.95922,-1.06122 -16.55099,-1.4565 -25.69096,-1.18194 l -13.73249,0.41251 -1.09437,-3.31597 c -1.58749,-4.81014 -9.01373,-11.7385 -16.56853,-15.45772 -8.42308,-4.14666 -9.91984,-3.46214 -9.7598,4.46347 0.13233,6.55328 5.62936,19.25443 9.64385,22.28256 l 2.47885,1.86981 -5.24952,5.8009 c -6.44673,7.12387 -10.87079,15.29714 -12.56907,23.22084 -1.34976,6.29757 -1.78698,31.1066 -0.91642,52 0.49446,11.86695 0.46491,12.07406 -2.66452,18.67961 -8.3191,17.5598 -26.91686,28.31212 -54.31075,31.39983 -3.56139,0.40143 -8.78489,1.75129 -11.60777,2.9997 -16.0166,7.0833 -38.61259,4.70402 -58.10008,-6.11775 -8.70417,-4.83358 -21.85826,-17.90845 -25.86478,-25.70901 -1.62366,-3.1612 -3.26822,-5.7487 -3.65459,-5.75 -0.38637,-0.001 -5.33637,1.78962 -11,3.97985 -11.91612,4.60818 -23.30776,11.03843 -29.94931,16.90551 -10.12194,8.94163 -17.02298,24.0418 -18.56051,40.61226 -0.4593,4.95 -0.59942,46.575 -0.31139,92.5 l 0.5237,83.5 2.21818,3.10969 c 4.06286,5.69575 6.99783,6.44955 23.96238,6.15441 13.53622,-0.23549 15.48596,-0.48844 18,-2.33518 z M 622.7683,-358.20264 c -3.99993,-1.74226 -8.10807,-6.71869 -9.56743,-11.58959 -2.16679,-7.23211 2.85935,-17.43455 9.90948,-20.11501 3.71931,-1.41408 11.09969,-1.03381 14.89564,0.76749 6.82707,3.23966 10.68826,12.53188 8.30454,19.98546 -3.16979,9.91153 -14.17578,15.03142 -23.54223,10.95165 z m 14.33602,-5.37304 c 3.21997,-2.10981 5.21356,-6.38694 5.21356,-11.18539 0,-3.19144 -0.69813,-4.82614 -3.2506,-7.61136 -5.8589,-6.39317 -15.29354,-5.49931 -19.78988,1.87494 -7.06123,11.5808 6.43144,24.38841 17.82692,16.92181 z m 6.66398,-42.62696 c -5.54601,-2.41569 -11.61008,-12.12898 -10.07297,-16.13464 0.78159,-2.03678 4.56709,-1.82669 5.24767,0.29124 1.85334,5.76749 3.0394,7.68405 5.79519,9.36453 1.69383,1.0329 4.0315,1.87968 5.19483,1.88173 3.51332,0.006 7.26147,-3.77932 8.72255,-8.80956 1.01467,-3.4933 1.91004,-4.76822 3.51628,-5.00684 6.77577,-1.00659 1.02249,14.24706 -6.92343,18.35606 -3.46993,1.79437 -7.44681,1.81428 -11.48012,0.0575 z m -229.79418,271.81393 c 6.3318,-4.72737 6.8157,-6.2452 7.16581,-22.47671 l 0.32204,-14.93062 h -12.07204 -12.07205 v 20.11285 20.11284 l 6.96803,-0.39373 c 4.98898,-0.2819 7.74062,-0.97054 9.68821,-2.42463 z m 167.67257,1.22864 c 4.18683,-1.74937 8.42904,-6.79658 9.17447,-10.91541 0.32057,-1.77131 0.45097,-11.90572 0.28979,-22.52091 l -0.29307,-19.30035 -10.25,8.14342 -10.25,8.14342 v 18.90693 18.90693 H 574.35 c 2.21766,0 5.50118,-0.61381 7.29669,-1.36403 z m -290.82881,-32.8047 c 16.95431,-4.94241 30.65664,-16.43812 38.53732,-32.33127 l 4.46268,-9 0.12626,-38.33578 c 0.12565,-38.14846 0.11685,-38.32193 -1.80097,-35.5 -7.20374,10.59974 -10.43495,20.95757 -13.34735,42.7857 -0.36325,2.72245 -2.00872,8.67605 -3.6566,13.2302 -9.28978,25.67356 -29.86104,40.25832 -56.84883,40.3051 -8.79913,0.0152 -9.77721,-0.31911 -16.11178,-5.50787 l -2.63926,-2.16188 12.13926,0.45363 c 14.78565,0.55252 21.69656,-0.63585 31.3038,-5.38288 15.00642,-7.41481 25.78104,-23.43412 28.85419,-42.89934 4.11524,-26.06577 9.63416,-41.08371 18.46346,-50.24225 3.35474,-3.47984 4.46207,-5.6668 6.076,-12 2.34735,-9.21117 7.42895,-20.20307 11.90186,-25.74463 3.97892,-4.92955 3.20899,-5.22543 -8.06447,-3.09917 -16.86204,3.18033 -30.70982,13.7036 -38.24592,29.06403 -4.53939,9.25239 -5.81743,13.35806 -8.68798,27.90988 -3.79528,19.23954 -9.15522,30.13029 -20.09906,40.83884 -7.13735,6.98389 -19.27809,13.14533 -29.28847,14.86393 -6.89734,1.18415 -25.58739,0.76737 -30.47699,-0.67963 -2.33954,-0.69235 -2.3848,-0.59822 -1.7179,3.57234 2.42738,15.17999 11.99909,31.08498 23.81637,39.57485 17.39758,12.49892 35.90548,15.94125 55.30438,10.2862 z M 508.5025,-325.32668 c 20.28012,-4.24332 34.89184,-14.26953 39.86323,-27.35318 1.63214,-4.29543 1.75189,-7.2873 1.24821,-31.18373 -0.46169,-21.90408 -0.27964,-27.88866 1.06267,-34.93245 1.82832,-9.5942 5.84071,-18.53728 11.04404,-24.61571 l 3.52319,-4.11572 -3.43272,-6.38428 c -4.63199,-8.61474 -7.01234,-19.24277 -5.53696,-24.72193 0.6056,-2.24902 2.08831,-4.78061 3.29491,-5.62575 6.91103,-4.84067 23.66737,2.61857 32.25654,14.35931 l 3.21593,4.39591 8.38817,-0.18316 c 8.40466,-0.18351 20.98177,0.84858 36.88817,3.02708 7.25907,0.99419 9.30296,0.92901 14,-0.44644 14.01592,-4.10434 20.07869,-13.16538 15.38909,-22.99957 -1.5649,-3.28162 -1.53142,-3.50394 1.17191,-7.78392 3.13538,-4.96402 5.439,-11.79471 5.439,-16.12773 v -2.90405 l -3.75,3.59113 c -5.27787,5.05426 -13.39191,10.32498 -20.06094,13.03119 l -5.68906,2.30855 -0.5,5.84755 c -0.46776,5.47054 -0.72565,5.96497 -4,7.669 -2.88936,1.50366 -5.07023,1.73413 -12.5,1.32097 -15.06493,-0.83775 -26.34087,-5.58787 -26.73545,-11.26263 -0.10281,-1.47855 3.77933,-12.38916 8.89426,-24.99698 1.19816,-2.95336 -20.2696,-5.25469 -32.4305,-3.47653 -17.39233,2.54309 -33.01256,12.03933 -39.08844,23.76362 -0.61848,1.19346 -2.81547,2.7178 -4.88219,3.38743 -12.19878,3.95246 -23.6402,13.05895 -28.30159,22.52587 -1.99514,4.05198 -2.41654,6.41186 -2.39585,13.41679 0.0176,5.9684 0.52006,9.42696 1.68692,11.61232 l 1.66181,3.11232 -6.20449,5.04625 c -10.36599,8.4309 -15.61637,19.91318 -13.74365,30.05658 0.54851,2.97096 0.44477,4.44663 -0.33094,4.70758 -0.62144,0.20906 -4.05489,1.11169 -7.62989,2.00585 -10.66057,2.66635 -19.84738,7.90397 -26.92714,15.3518 l -3.42713,3.60531 -1.46805,-3.499 c -0.80742,-1.92446 -1.68553,-6.98651 -1.95135,-11.24901 -0.26581,-4.2625 -0.82312,-7.75 -1.23845,-7.75 -1.21404,0 -7.71981,7.58335 -9.60016,11.19026 -2.58535,4.95928 -3.043,17.29034 -0.88837,23.93637 3.76097,11.60079 11.54423,22.10783 22.26254,30.05336 16.51183,12.2403 32.91813,16.1612 51.42273,12.28937 z m -51.19296,-3.66166 c -22.40916,-14.47179 -34.79791,-39.42045 -29.61466,-59.63847 2.99648,-11.68822 1.73739,-12.93262 -4.64818,-4.5939 -16.07764,20.99529 -1.14656,51.51542 32.27118,65.96447 8.38568,3.62577 9.1964,2.92071 1.99166,-1.7321 z m 181.50834,-155.32675 c 2.25704,-0.46861 2.5,-0.99656 2.5,-5.43261 0,-4.00828 -0.3625,-5.02862 -1.96753,-5.53804 -2.73092,-0.86676 -13.675,-8.92184 -18.73173,-13.78697 l -4.19926,-4.04015 -1.03607,2.40841 c -0.56984,1.32462 -2.57581,6.23341 -4.45771,10.90841 l -3.42164,8.5 2.56637,2.16467 c 2.84382,2.39868 8.22149,4.13313 16.3665,5.27866 5.18324,0.72898 6.96306,0.66251 12.38107,-0.46238 z m 1.5,-21.94369 v -6.46274 l -5.8188,-3.95147 -5.8188,-3.95147 -1.77669,3.29912 c -0.97718,1.81451 -1.61636,4.13161 -1.42041,5.14911 0.26647,1.38369 13.07242,12.23603 14.5847,12.35974 0.1375,0.0112 0.25,-2.88778 0.25,-6.44229 z m -16.60301,-9.70393 c -0.28326,-0.45833 -0.93847,-0.83333 -1.45601,-0.83333 -0.51754,0 -0.94098,0.375 -0.94098,0.83333 0,0.45834 0.65521,0.83334 1.45601,0.83334 0.80081,0 1.22425,-0.375 0.94098,-0.83334 z"
       id="path965"
       inkscape:connector-curvature="0" />
    <path
       style="fill:#aa768e"
       d="m 349.2393,-100.16317 c -4.43564,-1.58573 -7.28907,-3.54983 -9.73556,-6.70127 -4.72568,-6.08738 -4.66122,-5.5104 -5.18586,-46.41207 l -0.5,-38.98047 -3.31719,5.17273 c -4.23413,6.60257 -15.31719,17.07516 -22.28274,21.05539 -13.282,7.58954 -31.65665,10.87122 -46.46073,8.29779 -22.93897,-3.98753 -43.16197,-20.10005 -52.16869,-41.56497 -2.5707,-6.12651 -5.27065,-18.86038 -5.27065,-24.85813 v -4.44244 l 7.08804,1.82322 c 19.81162,5.09603 36.55178,2.82672 51.78702,-7.0203 11.55558,-7.46873 20.12201,-22.55263 23.56997,-41.50235 2.09978,-11.5402 4.06639,-18.51518 7.33078,-26 10.35324,-23.7387 31.29582,-37.48677 57.13415,-37.50659 7.04342,-0.005 9.13019,-0.37893 11.59004,-2.07461 5.09555,-3.51257 22.4082,-11.7739 29.37719,-14.01834 l 6.62281,-2.13295 v -9.13376 c 0,-7.74517 0.39377,-9.9699 2.59016,-14.63375 1.42459,-3.025 3.75952,-6.88219 5.18873,-8.57154 3.21224,-3.7969 10.20237,-8.72448 12.63005,-8.90333 0.99464,-0.0733 3.55953,-1.5063 5.69975,-3.18449 3.94302,-3.0918 7.70495,-5.34064 8.93398,-5.34064 0.37078,0 0.39179,1.125 0.0467,2.5 -0.34511,1.375 -0.45045,2.5 -0.2341,2.5 0.21634,0 2.13742,-1.60242 4.26905,-3.56093 3.5896,-3.29809 14.79126,-9.43907 17.21762,-9.43907 0.65652,0 0.4816,1.37476 -0.46238,3.63402 -1.86933,4.47394 -3.10127,17.36598 -1.65946,17.36598 0.5556,0 2.08337,-0.81416 3.39504,-1.80925 4.57927,-3.47402 10.23971,-6.31932 17.28599,-8.68905 l 7.09887,-2.38742 0.76718,-6.75478 c 1.07533,-9.46804 4.54262,-16.35659 11.95897,-23.75924 l 6.27385,-6.26226 -1.24864,-5.919 c -2.58582,-12.25766 2.3574,-26.13806 12.7278,-35.73926 5.47897,-5.0725 18.46346,-12.6797 21.64265,-12.6797 0.74421,0 2.42971,-1.7055 3.74557,-3.79 6.31766,-10.0078 21.64849,-19.8078 35.76753,-22.8638 9.70124,-2.0998 26.40909,-2.0768 35.28912,0.048 3.80822,0.9115 7.26058,1.308 7.67191,0.8812 0.41134,-0.4268 3.04405,-6.5907 5.85047,-13.6976 2.80643,-7.1068 5.99932,-14.3725 7.09532,-16.1459 3.86513,-6.2539 10.86528,-5.0024 12.94036,2.3135 0.58563,2.0647 1.66422,14.0015 2.39686,26.5262 0.73263,12.5247 1.61769,23.0578 1.96679,23.4069 1.16853,1.1686 15.38395,-6.6305 20.54763,-11.2731 2.80714,-2.5238 6.55964,-7.0227 8.33889,-9.9974 1.77925,-2.9747 3.51827,-5.4085 3.86448,-5.4085 0.34621,0 1.39759,2.442 2.33639,5.4267 3.07215,9.7671 1.7543,23.0597 -3.00653,30.3256 -1.26767,1.9347 -1.31128,3.1856 -0.2844,8.1573 1.05574,5.1114 0.98627,6.4654 -0.53625,10.4521 -0.96202,2.519 -3.07084,5.9949 -4.68627,7.7242 l -2.93714,3.1443 11.75873,12.20462 c 13.73854,14.25955 21.32495,24.49603 28.72782,38.76294 13.47449,25.96823 15.05878,48.39224 4.56599,64.62664 -4.77213,7.38341 -9.54483,11.33408 -19.53508,16.17046 -10.45047,5.05917 -20.38041,7.00609 -35.70784,7.00108 -15.35221,-0.005 -27.72075,-1.86273 -44.01216,-6.61046 -1.61105,-0.4695 -1.73774,3.32378 -2,59.88058 l -0.28,60.38183 -2.92448,4.42604 c -1.60847,2.43432 -5.36465,6.98751 -8.34707,10.1182 l -5.42258,5.69218 0.31049,23.30782 c 0.35842,26.90609 -0.006,28.78011 -6.74781,34.71462 -4.33866,3.81904 -10.59971,6.09321 -16.77531,6.09321 -2.09521,0 -2.36863,0.57704 -2.96152,6.25 -0.84444,8.08005 -4.61749,14.35509 -10.67269,17.75 -4.03675,2.26324 -5.5481,2.5 -15.95903,2.5 -12.43215,0 -15.25565,-0.84656 -20.57932,-6.17023 -5.15773,-5.15773 -5.42068,-6.99122 -5.42068,-37.79765 v -28.53212 H 471.6976 426.07732 l 0.71605,12.41465 c 0.89082,15.44477 -0.45834,21.2682 -6.18211,26.68404 -5.29403,5.00922 -10.08458,6.61598 -20.40449,6.84369 -2.45363,0.0541 -2.64369,0.41688 -3.15126,6.01444 -0.93529,10.31452 -6.54436,17.50619 -15.62,20.02715 -5.20325,1.44532 -27.86244,1.19822 -32.19621,-0.3511 z m 35.75914,-7.20395 c 6.08513,-4.46998 6.31618,-5.90278 6.31789,-39.17892 l 0.002,-30.25 65.75,-7.8e-4 65.75,-7.7e-4 -0.30595,29.56947 c -0.29204,28.2246 -0.21179,29.75964 1.76453,33.75077 3.44591,6.95895 5.94954,8.13587 18.04142,8.48102 11.62528,0.33183 15.49428,-0.90472 19.46782,-6.22201 1.90432,-2.54832 2.06364,-4.55348 2.53218,-31.86961 l 0.5,-29.1502 8,-6.3598 c 15.05345,-11.96712 24.82763,-20.69894 29.66346,-26.50001 l 4.83654,-5.80191 -0.002,-61.19809 -0.002,-61.19808 -5.74763,-2.97387 c -7.66686,-3.96689 -15.76183,-11.68725 -17.77126,-16.94885 -0.88601,-2.32 -1.46695,-6.20509 -1.29275,-8.64537 0.26548,-3.71875 0.67845,-4.48333 2.56639,-4.75146 2.08193,-0.29568 2.25,0.0628 2.25,4.79966 0,6.25665 1.59789,9.52045 7.09043,14.48262 13.13893,11.87024 49.84507,20.64009 74.65038,17.83552 43.64787,-4.93496 57.96187,-34.40131 37.30664,-76.79825 -6.64351,-13.63647 -16.27202,-26.72018 -30.15065,-40.97022 l -11.65823,-11.97023 -5.45718,1.72023 c -6.78539,2.1389 -13.9925,2.16981 -29.32293,0.12576 -7.95922,-1.06122 -16.55099,-1.4565 -25.69096,-1.18194 l -13.73249,0.41251 -1.09437,-3.31597 c -1.58749,-4.8101 -9.01373,-11.7385 -16.56853,-15.4577 -8.42308,-4.1467 -9.91984,-3.4622 -9.7598,4.4635 0.13233,6.5532 5.62936,19.25438 9.64385,22.28251 l 2.47885,1.86981 -5.24952,5.8009 c -6.44673,7.12387 -10.87079,15.29714 -12.56907,23.22084 -1.34976,6.29757 -1.78698,31.1066 -0.91642,52 0.49446,11.86695 0.46491,12.07406 -2.66452,18.67961 -8.3191,17.5598 -26.91686,28.31212 -54.31075,31.39983 -3.56139,0.40143 -8.78489,1.75129 -11.60777,2.9997 -16.0166,7.0833 -38.61259,4.70402 -58.10008,-6.11775 -8.70417,-4.83358 -21.85826,-17.90845 -25.86478,-25.70901 -1.62366,-3.1612 -3.26822,-5.7487 -3.65459,-5.75 -0.38637,-0.001 -5.33637,1.78962 -11,3.97985 -11.91612,4.60818 -23.30776,11.03843 -29.94931,16.90551 -10.12194,8.94163 -17.02298,24.0418 -18.56051,40.61226 -0.4593,4.95 -0.59942,46.575 -0.31139,92.5 l 0.5237,83.5 2.21818,3.10969 c 4.06286,5.69575 6.99783,6.44955 23.96238,6.15441 13.53622,-0.23549 15.48596,-0.48844 18,-2.33518 z M 622.7683,-358.20264 c -3.99993,-1.74226 -8.10807,-6.71869 -9.56743,-11.58959 -2.16679,-7.23211 2.85935,-17.43455 9.90948,-20.11501 3.71931,-1.41408 11.09969,-1.03381 14.89564,0.76749 6.82707,3.23966 10.68826,12.53188 8.30454,19.98546 -3.16979,9.91153 -14.17578,15.03142 -23.54223,10.95165 z m 14.33602,-5.37304 c 3.21997,-2.10981 5.21356,-6.38694 5.21356,-11.18539 0,-3.19144 -0.69813,-4.82614 -3.2506,-7.61136 -5.8589,-6.39317 -15.29354,-5.49931 -19.78988,1.87494 -7.06123,11.5808 6.43144,24.38841 17.82692,16.92181 z m 6.66398,-42.62696 c -5.54601,-2.41569 -11.61008,-12.12898 -10.07297,-16.13464 0.78159,-2.03678 4.56709,-1.82669 5.24767,0.29124 1.85334,5.76749 3.0394,7.68405 5.79519,9.36453 1.69383,1.0329 4.0315,1.87968 5.19483,1.88173 3.51332,0.006 7.26147,-3.77932 8.72255,-8.80956 1.01467,-3.4933 1.91004,-4.76822 3.51628,-5.00684 6.77577,-1.00659 1.02249,14.24706 -6.92343,18.35606 -3.46993,1.79437 -7.44681,1.81428 -11.48012,0.0575 z m -229.79418,271.81393 c 6.3318,-4.72737 6.8157,-6.2452 7.16581,-22.47671 l 0.32204,-14.93062 h -12.07204 -12.07205 v 20.11285 20.11284 l 6.96803,-0.39373 c 4.98898,-0.2819 7.74062,-0.97054 9.68821,-2.42463 z m 167.67257,1.22864 c 4.18683,-1.74937 8.42904,-6.79658 9.17447,-10.91541 0.32057,-1.77131 0.45097,-11.90572 0.28979,-22.52091 l -0.29307,-19.30035 -10.25,8.14342 -10.25,8.14342 v 18.90693 18.90693 H 574.35 c 2.21766,0 5.50118,-0.61381 7.29669,-1.36403 z m -290.82881,-32.8047 c 16.95431,-4.94241 30.65664,-16.43812 38.53732,-32.33127 l 4.46268,-9 0.12626,-38.33578 c 0.12565,-38.14846 0.11685,-38.32193 -1.80097,-35.5 -7.20374,10.59974 -10.43495,20.95757 -13.34735,42.7857 -0.36325,2.72245 -2.00872,8.67605 -3.6566,13.2302 -9.28978,25.67356 -29.86104,40.25832 -56.84883,40.3051 -8.79913,0.0152 -9.77721,-0.31911 -16.11178,-5.50787 l -2.63926,-2.16188 12.13926,0.45363 c 14.78565,0.55252 21.69656,-0.63585 31.3038,-5.38288 15.00642,-7.41481 25.78104,-23.43412 28.85419,-42.89934 4.11524,-26.06577 9.63416,-41.08371 18.46346,-50.24225 3.35474,-3.47984 4.46207,-5.6668 6.076,-12 2.34735,-9.21117 7.42895,-20.20307 11.90186,-25.74463 3.97892,-4.92955 3.20899,-5.22543 -8.06447,-3.09917 -16.86204,3.18033 -30.70982,13.7036 -38.24592,29.06403 -4.53939,9.25239 -5.81743,13.35806 -8.68798,27.90988 -3.79528,19.23954 -9.15522,30.13029 -20.09906,40.83884 -7.13735,6.98389 -19.27809,13.14533 -29.28847,14.86393 -6.89734,1.18415 -25.58739,0.76737 -30.47699,-0.67963 -2.33954,-0.69235 -2.3848,-0.59822 -1.7179,3.57234 2.42738,15.17999 11.99909,31.08498 23.81637,39.57485 17.39758,12.49892 35.90548,15.94125 55.30438,10.2862 z m 188.70078,-150.03597 5.29922,-1.20471 -9,-0.84208 c -15.97212,-1.49442 -31.04821,-7.5726 -42.77511,-17.24549 -12.39699,-10.22562 -19.85687,-23.68322 -20.48652,-36.95763 -0.25036,-5.2781 0.12529,-9.6792 1.09214,-12.79539 1.74827,-5.63477 0.61684,-6.17132 -3.43753,-1.63013 -9.10617,10.19957 -9.89982,24.65345 -2.15656,39.27495 6.76811,12.78014 25.07264,26.28947 41.42462,30.57269 8.52374,2.23271 22.20184,2.60962 30.03974,0.82779 z m 28.98384,-9.32594 c 20.28012,-4.24332 34.89184,-14.26953 39.86323,-27.35318 1.63214,-4.29543 1.75189,-7.2873 1.24821,-31.18373 -0.46169,-21.90408 -0.27964,-27.88866 1.06267,-34.93245 1.82832,-9.5942 5.84071,-18.53728 11.04404,-24.61571 l 3.52319,-4.11572 -3.43272,-6.38428 c -4.63199,-8.61475 -7.01234,-19.24275 -5.53696,-24.72195 0.6056,-2.249 2.08831,-4.7806 3.29491,-5.6257 6.91103,-4.8407 23.66737,2.6185 32.25654,14.3593 l 3.21593,4.3959 8.38817,-0.1832 c 8.40466,-0.1835 20.98177,0.8486 36.88817,3.0271 7.25907,0.9942 9.30296,0.929 14,-0.4464 14.01592,-4.1044 20.07869,-13.1654 15.38909,-22.9996 -1.5649,-3.2816 -1.53142,-3.5039 1.17191,-7.7839 3.13538,-4.964 5.439,-11.7947 5.439,-16.1278 v -2.904 l -3.75,3.5911 c -5.27787,5.0543 -13.39191,10.325 -20.06094,13.0312 l -5.68906,2.3086 -0.5,5.8475 c -0.46776,5.4706 -0.72565,5.965 -4,7.669 -2.88936,1.5037 -5.07023,1.7342 -12.5,1.321 -15.06493,-0.8378 -26.34087,-5.5879 -26.73545,-11.2626 -0.10281,-1.4786 3.77933,-12.3892 8.89426,-24.997 1.19816,-2.9534 -20.2696,-5.2547 -32.4305,-3.4766 -17.39233,2.5431 -33.01256,12.0394 -39.08844,23.7637 -0.61848,1.1934 -2.81547,2.7178 -4.88219,3.3874 -12.19878,3.9525 -23.6402,13.0589 -28.30159,22.5259 -1.99514,4.052 -2.41654,6.4118 -2.39585,13.41676 0.0176,5.9684 0.52006,9.42696 1.68692,11.61232 l 1.66181,3.11232 -6.20449,5.04625 c -10.36599,8.4309 -15.61637,19.91318 -13.74365,30.05658 0.54851,2.97096 0.44477,4.44663 -0.33094,4.70758 -0.62144,0.20906 -4.05489,1.11169 -7.62989,2.00585 -10.66057,2.66635 -19.84738,7.90397 -26.92714,15.3518 l -3.42713,3.60531 -1.46805,-3.499 c -0.80742,-1.92446 -1.68553,-6.98651 -1.95135,-11.24901 -0.26581,-4.2625 -0.82312,-7.75 -1.23845,-7.75 -1.21404,0 -7.71981,7.58335 -9.60016,11.19026 -2.58535,4.95928 -3.043,17.29034 -0.88837,23.93637 3.76097,11.60079 11.54423,22.10783 22.26254,30.05336 16.51183,12.2403 32.91813,16.1612 51.42273,12.28937 z m -51.19296,-3.66166 c -22.40916,-14.47179 -34.79791,-39.42045 -29.61466,-59.63847 2.99648,-11.68822 1.73739,-12.93262 -4.64818,-4.5939 -16.07764,20.99529 -1.14656,51.51542 32.27118,65.96447 8.38568,3.62577 9.1964,2.92071 1.99166,-1.7321 z M 638.81788,-484.3151 c 2.25704,-0.4686 2.5,-0.9965 2.5,-5.4326 0,-4.0083 -0.3625,-5.0286 -1.96753,-5.538 -2.73092,-0.8668 -13.675,-8.9219 -18.73173,-13.787 l -4.19926,-4.0402 -1.03607,2.4085 c -0.56984,1.3246 -2.57581,6.2334 -4.45771,10.9084 l -3.42164,8.5 2.56637,2.1646 c 2.84382,2.3987 8.22149,4.1332 16.3665,5.2787 5.18324,0.729 6.96306,0.6625 12.38107,-0.4624 z m 1.5,-21.9437 v -6.4627 l -5.8188,-3.9515 -5.8188,-3.9515 -1.77669,3.2992 c -0.97718,1.8145 -1.61636,4.1316 -1.42041,5.1491 0.26647,1.3837 13.07242,12.236 14.5847,12.3597 0.1375,0.011 0.25,-2.8878 0.25,-6.4423 z m -16.60301,-9.7039 c -0.28326,-0.4583 -0.93847,-0.8333 -1.45601,-0.8333 -0.51754,0 -0.94098,0.375 -0.94098,0.8333 0,0.4583 0.65521,0.8333 1.45601,0.8333 0.80081,0 1.22425,-0.375 0.94098,-0.8333 z m 14.66517,-22.5409 c -1.20857,-12.4 -1.67918,-14.2924 -3.55414,-14.2924 -1.7357,0 -3.56849,3.0575 -7.41535,12.3707 l -3.25104,7.8707 3.32918,3.5034 c 1.83106,1.9269 5.12919,4.8341 7.32919,6.4605 l 4,2.957 0.32726,-3.8311 c 0.17999,-2.1072 -0.1643,-8.8746 -0.7651,-15.0388 z"
       id="path963"
       inkscape:connector-curvature="0" />
    <path
       style="fill:#333333"
       d="m 349.96634,-99.777838 c -7.30839,-2.305502 -12.82089,-8.365652 -14.57065,-16.018202 -0.60127,-2.62966 -1.03908,-19.63104 -1.05336,-40.90504 l -0.0245,-36.40503 -3.84921,5.90503 c -2.11707,3.24777 -6.50457,8.40226 -9.75,11.45441 -33.87817,31.86059 -88.65432,22.04959 -108.9344,-19.51133 -4.49848,-9.21896 -7.46639,-20.67446 -7.46639,-28.81872 v -4.365 l 7.25,1.91311 c 8.92888,2.35612 25.92789,2.78966 33.75,0.86075 20.62597,-5.08631 34.78649,-20.48297 40.04167,-43.53711 1.07708,-4.72509 2.84772,-12.52857 3.93475,-17.34107 1.15647,-5.11991 3.90875,-12.66324 6.63413,-18.18251 10.70638,-21.68195 30.78727,-34.05528 55.29941,-34.07408 7.04342,-0.005 9.13019,-0.37893 11.59004,-2.07461 5.09555,-3.51257 22.4082,-11.7739 29.37719,-14.01834 l 6.62281,-2.13295 v -9.13376 c 0,-7.74517 0.39377,-9.9699 2.59016,-14.63375 1.42459,-3.025 3.75952,-6.88219 5.18873,-8.57154 3.21224,-3.7969 10.20237,-8.72448 12.63005,-8.90333 0.99464,-0.0733 3.55953,-1.5063 5.69975,-3.18449 3.94302,-3.0918 7.70495,-5.34064 8.93398,-5.34064 0.37078,0 0.39179,1.125 0.0467,2.5 -0.34511,1.375 -0.45045,2.5 -0.2341,2.5 0.21634,0 2.13742,-1.60242 4.26905,-3.56093 3.5896,-3.29809 14.79126,-9.43907 17.21762,-9.43907 0.65652,0 0.4816,1.37476 -0.46238,3.63402 -1.86933,4.47394 -3.10127,17.36598 -1.65946,17.36598 0.5556,0 2.08337,-0.83924 3.39504,-1.86498 3.61982,-2.83072 12.73122,-7.2627 18.88486,-9.18601 l 5.5,-1.71901 0.76718,-6.81264 c 1.07187,-9.51843 4.52631,-16.39818 11.95897,-23.8171 l 6.27385,-6.26226 -1.20794,-5.919 c -3.84775,-18.8542 9.9579,-39.84575 31.04228,-47.19995 3.56274,-1.24267 5.55161,-2.70002 7.17701,-5.25896 5.45945,-8.59506 18.88711,-17.82968 31.19379,-21.45291 12.66619,-3.72909 30.63931,-3.88112 42.39632,-0.35864 2.4009,0.71933 4.31343,0.82549 4.85255,0.26936 0.4894,-0.50484 3.16735,-6.68559 5.951,-13.735 6.16488,-15.61211 7.68158,-18.26902 11.27966,-19.75939 3.79774,-1.57308 7.37043,0.79146 8.79742,5.82245 0.58563,2.06472 1.66422,14.00152 2.39686,26.52621 0.73263,12.5247 1.61769,23.0578 1.96679,23.4069 1.21911,1.21911 15.60709,-6.78341 20.85893,-11.60163 2.91243,-2.67196 6.64533,-7.14853 8.29533,-9.94793 1.65,-2.7994 3.26625,-5.09875 3.59167,-5.10967 0.32542,-0.0109 1.38865,2.61238 2.36273,5.82955 2.58073,8.52359 1.83696,19.83143 -1.79925,27.35471 -2.50164,5.17583 -2.65209,6.09353 -1.62464,9.90922 0.62278,2.31283 0.83717,5.82098 0.47642,7.79591 -0.78667,4.30663 -4.88258,11.64199 -7.23608,12.95907 -1.42934,0.7999 0.15639,2.86265 10.2694,13.3586 13.60356,14.11867 21.31293,24.40313 28.41119,37.90109 22.61407,43.00266 12.65852,75.54053 -26.45144,86.45167 -7.90485,2.20534 -30.94279,3.01601 -41.75898,1.46943 -7.11779,-1.01775 -20.48505,-3.91513 -25.96102,-5.6271 -1.61152,-0.50381 -1.73767,3.27084 -2,59.84411 l -0.28,60.38183 -2.66749,4.02992 c -1.46712,2.21645 -5.20313,6.76871 -8.30225,10.11612 l -5.63475,6.08621 0.17852,23.80991 c 0.14387,19.18755 -0.11193,24.50117 -1.31763,27.37061 -1.86638,4.44178 -9.06874,10.72175 -13.16912,11.48256 -1.69801,0.31506 -3.98728,0.73729 -5.08728,0.93828 -1.1,0.20099 -2.94839,0.39987 -4.10754,0.44195 -1.83385,0.0666 -2.19123,0.87719 -2.75197,6.24201 -0.8484,8.11705 -4.30646,13.9684 -10.34729,17.50856 -3.85232,2.257612 -6.14624,2.798582 -13.3217,3.141652 -10.67134,0.5102 -18.03308,-1.408772 -22.83996,-5.953652 -5.93131,-5.60801 -6.13154,-6.85969 -6.13154,-38.32994 v -28.53212 h -45.55201 -45.55201 l 0.50096,12.75 c 0.59252,15.0806 -0.33123,19.64496 -5.10434,25.22127 -4.90453,5.72983 -9.06866,7.20563 -22.40371,7.94 -1.23046,0.0678 -1.74165,1.52831 -2.16361,6.18178 -0.71956,7.93546 -4.65459,14.48038 -10.76625,17.90695 -4.12164,2.310842 -5.55617,2.515802 -18.95903,2.708872 -7.975,0.11488 -15.78319,-0.19593 -17.35154,-0.69067 z m 34.11068,-7.012802 c 1.79253,-1.09292 4.15334,-3.45373 5.24626,-5.24626 1.86885,-3.06516 1.98735,-5.08932 1.99086,-34.00914 l 0.004,-30.75 65.75,-7.5e-4 65.75,-7.5e-4 -0.26347,30.25075 c -0.25993,29.84517 -0.23311,30.30298 2,34.14665 3.52026,6.05911 7.43465,7.60477 19.24787,7.60036 11.33179,-0.004 14.98029,-1.42989 18.521,-7.23712 1.85855,-3.04826 1.98737,-5.08384 1.99086,-31.46 l 0.004,-28.20085 10.25,-8.2287 c 15.06789,-12.09649 24.58306,-20.71723 28.91341,-26.19554 l 3.83633,-4.85365 -0.002,-61.1602 -0.002,-61.1602 -5.62299,-2.93823 c -7.84384,-4.09871 -15.88034,-11.70683 -17.87046,-16.91789 -0.90827,-2.37826 -1.49399,-6.24934 -1.31819,-8.71197 0.26548,-3.71875 0.67845,-4.48333 2.56639,-4.75146 2.08193,-0.29568 2.25,0.0628 2.25,4.79966 0,6.05633 1.48427,9.21944 6.66758,14.20921 6.81764,6.56308 19.73893,11.93021 38.3603,15.93376 13.82357,2.97204 38.01845,3.22186 47.97212,0.49534 26.11434,-7.15327 38.59986,-24.37001 34.9819,-48.23781 -2.17246,-14.33181 -9.37533,-30.70098 -20.14621,-45.78406 -5.94825,-8.32969 -19.04254,-23.08979 -26.62821,-30.01577 l -4.29252,-3.91922 -5.29537,1.66922 c -6.61085,2.08389 -12.20578,2.09557 -28.89913,0.0603 -8.38896,-1.02276 -18.02766,-1.46769 -26.4584,-1.22133 -9.26501,0.27077 -13.26281,0.0538 -13.26281,-0.71964 0,-2.6828 -6.47733,-10.49281 -11.74676,-14.16359 -7.37201,-5.13547 -12.71031,-6.982 -14.90917,-5.15711 -3.71791,3.08559 2.78146,23.8547 8.91209,28.47904 l 2.47885,1.86981 -5.24952,5.8009 c -6.42955,7.10489 -10.8587,15.2735 -12.5907,23.22084 -1.3649,6.26288 -1.79789,31.69059 -0.89479,52.54726 l 0.5,11.54726 -3.77381,7.64038 c -8.1896,16.58053 -24.56661,26.00552 -52.72619,30.344 -4.675,0.72027 -11.875,2.5305 -16,4.02275 -6.25929,2.26433 -9.15428,2.7153 -17.5,2.72606 -19.10674,0.0246 -36.4905,-6.82546 -50.28691,-19.81561 -6.38299,-6.00996 -13.94248,-16.20027 -15.51296,-20.91171 -0.42598,-1.27795 -15.81831,4.42501 -25.70013,9.52208 -15.37512,7.93052 -24.86395,17.71009 -29.92202,30.83886 -5.30303,13.76461 -5.30624,13.83172 -5.13112,107.34945 0.0894,47.74593 0.43617,87.57093 0.77057,88.5 1.28308,3.5647 4.70068,7.46343 7.67883,8.75985 2.12127,0.92341 7.69361,1.36229 17.60374,1.38649 12.74684,0.0311 14.89405,-0.20485 17.75914,-1.95172 z m 238.69128,-251.412 c -1.67726,-0.73057 -4.25293,-2.75842 -5.7237,-4.50632 -9.55881,-11.36001 -2.04753,-28.07203 12.62215,-28.08334 15.34793,-0.0118 22.81314,16.33124 12.86189,28.15764 -4.62974,5.50213 -12.99569,7.37852 -19.76034,4.43202 z m 11.86532,-3.71836 c 4.01761,-2.0692 6.6978,-5.21161 7.73716,-9.0715 1.36506,-5.06946 -1.49287,-11.94546 -5.9156,-14.23254 -9.27759,-4.79763 -19.1373,1.22952 -19.1373,11.69843 0,8.83683 9.86018,15.44546 17.31574,11.60561 z m 9.13468,-44.28164 c -5.54601,-2.41569 -11.61008,-12.12898 -10.07297,-16.13464 0.78159,-2.03678 4.56709,-1.82669 5.24767,0.29124 1.85334,5.76749 3.0394,7.68405 5.79519,9.36453 1.69383,1.0329 4.0315,1.87968 5.19483,1.88173 3.51332,0.006 7.26147,-3.77932 8.72255,-8.80956 1.01467,-3.4933 1.91004,-4.76822 3.51628,-5.00684 3.05763,-0.45423 3.59692,1.94655 1.71202,7.62147 -3.27101,9.84808 -11.78991,14.4185 -20.11557,10.79207 z m -229.79418,271.81393 c 6.3318,-4.72737 6.8157,-6.2452 7.16581,-22.47671 l 0.32204,-14.93062 h -12.07204 -12.07205 v 20.11285 20.11284 l 6.96803,-0.39373 c 4.98898,-0.2819 7.74062,-0.97054 9.68821,-2.42463 z m 170.07344,-0.0548 c 6.62957,-4.94969 6.7415,-5.4152 7.07445,-29.42292 0.18165,-13.09868 -0.0711,-21.92961 -0.62756,-21.92961 -0.51242,0 -1.50526,0.69112 -2.2063,1.53583 -0.70105,0.8447 -5.03115,4.46913 -9.62245,8.05428 l -8.34782,6.51845 v 19.06955 19.06955 l 5.54147,-0.45954 c 3.35664,-0.27836 6.585,-1.23865 8.18821,-2.43562 z m -295.67007,-30.47567 c 12.47237,-3.13736 19.37811,-6.97926 28.52493,-15.86939 6.78207,-6.59175 11.80885,-14.15775 14.94896,-22.50023 2.46304,-6.5437 2.46645,-6.60516 2.43323,-43.78007 l -0.0333,-37.22717 -2.07173,2.49046 c -5.57515,6.70195 -9.82492,19.08093 -12.78511,37.24119 -1.09988,6.74759 -2.89675,14.86723 -3.99305,18.04365 -9.00383,26.08785 -30.4813,41.6402 -57.59692,41.70734 -6.40364,0.0159 -7.47588,-0.29413 -12.33372,-3.56559 -2.9262,-1.97062 -5.14383,-3.75948 -4.92806,-3.97526 0.21578,-0.21577 3.29095,0.0866 6.83372,0.67187 17.14671,2.83279 36.50295,-2.8605 47.98403,-14.11366 9.74009,-9.54673 14.91714,-20.90502 17.46739,-38.32295 3.36965,-23.01429 8.47781,-35.87439 18.81587,-47.37009 1.88297,-2.09383 3.73665,-5.38196 4.11927,-7.30696 2.10555,-10.5932 7.50453,-22.74124 13.22185,-29.75 l 3.4669,-4.25 h -3.38329 c -11.96883,0 -26.13256,5.75301 -35.48468,14.41314 -10.72188,9.92854 -16.18486,21.42007 -20.24544,42.58686 -3.6266,18.9046 -9.46598,31.17005 -19.62924,41.23067 -13.09173,12.95953 -32.95638,18.81818 -53.7964,15.8661 -4.34783,-0.61589 -8.13907,-0.88589 -8.42496,-0.59999 -1.25352,1.25352 2.13083,13.64956 5.83313,21.36537 5.61296,11.69772 16.03645,22.12483 27.99698,28.0067 14.68428,7.22135 28.07112,8.77829 43.05961,5.00801 z m 191.14117,-151.07985 5.29922,-1.20299 -8,-0.74491 c -10.9861,-1.02297 -19.53346,-3.38173 -29.14137,-8.04197 -20.57347,-9.97901 -34.25402,-27.99955 -35.12026,-46.26175 -0.25036,-5.2781 0.12529,-9.6792 1.09214,-12.79539 1.74827,-5.63477 0.61684,-6.17132 -3.43753,-1.63013 -9.10617,10.19957 -9.89982,24.65345 -2.15656,39.27495 6.76811,12.78014 25.07264,26.28947 41.42462,30.57269 8.52096,2.23198 22.1981,2.60965 30.03974,0.8295 z m 32.46747,-9.83624 c 16.24936,-3.78886 29.87884,-12.88975 35.35211,-23.60588 l 2.47964,-4.85489 0.0348,-31.5 c 0.0295,-26.73204 0.29371,-32.37496 1.74524,-37.2805 2.17614,-7.35444 4.9657,-12.80632 9.88937,-19.32767 l 3.90908,-5.17754 -2.9437,-5.85714 c -4.34949,-8.65431 -6.1348,-14.75657 -6.1348,-20.96902 0,-4.79201 0.39557,-5.93754 2.92308,-8.46505 3.96427,-3.96427 8.01791,-3.81873 16.86121,0.60539 4.83265,2.41768 8.81007,5.42632 12.63436,9.557 3.06974,3.31569 5.58155,6.34038 5.58179,6.72153 2.4e-4,0.38115 5.51274,0.73831 12.25,0.79369 6.73726,0.0554 18.71821,0.89635 26.62433,1.86882 7.90612,0.97247 16.34084,1.49866 18.74382,1.16929 5.58121,-0.76499 13.5838,-4.80934 16.26771,-8.22138 4.08425,-5.19229 4.54191,-12.78667 1.02588,-17.02324 -0.92401,-1.11336 -0.62433,-2.20319 1.41699,-5.15308 3.41227,-4.93103 5.67083,-11.5277 5.67083,-16.56299 v -4.07044 l -3.25,3.02175 c -7.53468,7.00553 -15.51303,12.00382 -23.69532,14.8447 -3.46723,1.20381 -3.55468,1.36384 -3.55468,6.50529 0,4.61539 -0.35127,5.53543 -2.82377,7.39585 -5.5245,4.1569 -25.56706,2.16179 -35.16362,-3.50032 -5.43112,-3.20444 -5.43498,-5.43533 -0.0329,-19.03066 2.6115,-6.57236 4.5656,-12.13234 4.34243,-12.3555 -1.54133,-1.54133 -13.74391,-3.48605 -21.78221,-3.47142 -11.82714,0.0215 -20.88233,1.88128 -29.57656,6.07443 -7.4455,3.5909 -17.0714,11.90834 -19.93448,17.22477 -1.37498,2.55317 -2.94466,3.79041 -5.94837,4.68857 -11.16944,3.33983 -21.97019,11.7829 -27.07759,21.16688 -3.78882,6.96131 -4.58631,17.37371 -1.90231,24.83765 1.82774,5.08278 1.82598,5.17206 -0.1232,6.25893 -4.52897,2.52538 -12.6531,11.39121 -15.19036,16.57718 -2.23719,4.57265 -2.73396,6.97611 -2.78644,13.4812 l -0.0639,7.91645 -6.96837,1.77113 c -10.28753,2.61477 -17.61847,6.47173 -24.78845,13.04171 l -6.38987,5.85516 -1.27287,-4.20571 c -0.70008,-2.31314 -1.55284,-7.47922 -1.89502,-11.48017 l -0.62215,-7.27446 -3.68742,3.04568 c -5.56889,4.59971 -9.1154,12.9175 -9.16847,21.50324 -0.0577,9.33772 2.59011,17.25875 8.85337,26.48502 8.53999,12.58009 22.7207,22.70509 38.00252,27.13371 8.37506,2.42707 21.35512,2.36333 32.16825,-0.15796 z m -54.67659,-3.15307 c -22.40916,-14.47179 -34.79791,-39.42045 -29.61466,-59.63847 2.99648,-11.68822 1.73739,-12.93262 -4.64818,-4.5939 -16.07764,20.99529 -1.14656,51.51542 32.27118,65.96447 8.38568,3.62577 9.1964,2.92071 1.99166,-1.7321 z m 181.50834,-155.32675 c 2.25704,-0.46861 2.5,-0.99656 2.5,-5.43261 0,-4.00828 -0.3625,-5.02862 -1.96753,-5.53804 -2.73092,-0.86676 -13.675,-8.92184 -18.73173,-13.78697 l -4.19926,-4.04015 -1.03607,2.40841 c -0.56984,1.32462 -2.57581,6.23341 -4.45771,10.90841 l -3.42164,8.5 2.56637,2.16467 c 2.84382,2.39868 8.22149,4.13313 16.3665,5.27866 5.18324,0.72898 6.96306,0.66251 12.38107,-0.46238 z m 2.06804,-17.73095 c -0.23068,-1.2375 -0.45286,-4.31171 -0.49373,-6.83159 -0.0714,-4.40124 -0.28096,-4.7154 -5.32431,-7.98127 -2.8875,-1.86983 -6.94939,-4.93372 -9.02643,-6.80865 -2.07703,-1.87493 -3.91635,-3.23336 -4.08738,-3.01873 -0.17102,0.21463 -1.08981,2.38853 -2.04176,4.83089 l -1.7308,4.44065 5.63092,5.32503 c 5.43001,5.13503 15.17532,12.29367 16.73583,12.29367 0.41639,0 0.56833,-1.0125 0.33766,-2.25 z m -2.50588,-36.45755 c -1.22018,-12.5191 -1.67258,-14.29245 -3.6461,-14.29245 -1.87313,0 -3.72008,3.09737 -7.39476,12.40112 l -3.12068,7.90113 3.29969,3.47303 c 1.81483,1.91016 5.09969,4.80369 7.29969,6.43006 l 4,2.95703 0.32726,-3.83118 c 0.17999,-2.10716 -0.1643,-8.87459 -0.7651,-15.03874 z"
       id="path961"
       inkscape:connector-curvature="0" />
    <path
       sodipodi:nodetypes="cccccccccccsssssscscccssscsccccccsccccccccccccccccccsccsssscscccccccssccsssscccscscccccccccccccc"
       inkscape:connector-curvature="0"
       id="rect986"
       d="m 565.60352,-478.7832 c -5.93117,-0.0667 -1.07099,19.22237 6.97851,27.69531 2.39433,2.52029 2.80182,3.50759 1.90039,4.59375 -0.63128,0.76065 -0.81398,1.7511 -0.40625,2.20117 0.40772,0.45008 0.23065,0.52509 -0.39453,0.16797 -1.37871,-0.78757 -3.64899,1.68014 -2.60547,2.83203 0.40772,0.45008 0.22157,0.51983 -0.41406,0.15625 -0.68107,-0.38957 -2.59537,1.34396 -4.66211,4.2207 -8.92375,12.42121 -9.94112,18.3095 -9.51367,55.11914 l 0.33203,28.5 -2.93164,6 c -3.68459,7.54229 -13.10116,17.01159 -21.0957,21.2129 -7.84735,4.12396 -21.91578,8.1844 -31.97266,9.22656 -4.92537,0.5104 -10.49814,1.89449 -14.5,3.60351 -8.66964,3.70243 -23.044,4.52575 -34.63477,1.98438 -9.513,-2.0858 -22.07794,-7.77334 -29.8457,-13.51172 -5.88185,-4.34518 -13.51953,-11.86935 -13.51953,-13.31836 0,-0.44794 -0.37565,-0.58209 -0.83398,-0.29883 -0.45835,0.28327 -0.83399,-0.0423 -0.83399,-0.72265 0,-0.68025 -0.77398,-2.4184 -1.7207,-3.86329 l -1.72071,-2.62695 -7.1621,4.41602 c -16.43115,10.13047 -25.13898,22.05488 -29.62696,40.57617 -2.05546,8.48259 -2.10155,10.6354 -2.08008,96 0.0209,83.04207 0.11387,87.52395 1.88672,91.42773 2.99893,6.6036 5.80455,8.67293 10.84961,8 2.34166,-0.31233 5.2879,-1.24412 6.54883,-2.07031 1.26093,-0.82619 3.39478,-2.97133 4.74219,-4.76758 l 2.45117,-3.26758 0.30273,-31.32031 0.30274,-31.32226 76.39844,0.32226 c 54.28948,0.22846 76.7188,0.64223 77.50781,1.43164 0.76475,0.76514 1.08151,9.72422 1.01953,28.78516 -0.0974,29.9586 0.38365,33.8004 4.86719,38.81836 l 2.80273,3.13476 3.26563,-2.32617 c 6.49028,-4.62148 6.98714,-7.28975 7.01172,-37.72265 l 0.0215,-27.20118 11.81641,-9.41211 c 15.43827,-12.29693 24.84485,-21.13406 28.34961,-26.63281 l 2.83398,-4.44531 v -35.80469 -35.80469 l -2.75,-0.0215 c -4.88017,-0.039 -10.93698,-3.54734 -13.93359,-8.07226 l -2.81641,-4.25391 -0.31641,-24.51367 c -0.28582,-22.17676 -0.49671,-24.76875 -2.21484,-27.18164 -2.7483,-3.85964 -4.388,-10.90634 -3.5625,-15.30664 0.63165,-3.36695 0.99644,-3.73848 3.40039,-3.46094 2.47196,0.2854 2.67295,0.63964 2.44531,4.30273 -0.1364,2.19505 0.21292,5.34505 0.77735,7 1.28387,3.76439 6.68031,9.8062 8.01953,8.97852 0.54993,-0.33988 0.87573,-0.037 0.72461,0.67383 -0.39204,1.84384 14.3125,9.02063 23.77929,11.60546 18.45019,5.03769 42.88575,6.85108 55.58789,4.12696 16.32268,-3.50058 26.85938,-18.162 26.85938,-37.37305 0,-23.31733 -13.91506,-50.54644 -39.42383,-77.14844 -9.40225,-9.80521 -9.85059,-10.12797 -13.40234,-9.66601 -2.0211,0.26287 -9.07383,-0.24348 -15.67383,-1.125 -18.99047,-2.53643 -35.20843,-3.06834 -40.17774,-1.31836 -4.15257,1.46237 -4.18093,1.45576 -4.8164,-1.07617 -1.7648,-7.03151 -15.23872,-19.68735 -18.68945,-17.55469 -0.64276,0.39725 -0.8499,0.24889 -0.48243,-0.3457 0.59596,-0.96427 -2.22222,-2.22408 -5.04882,-2.25586 z m 96.71875,53.48632 c 2.01009,0 2.56003,0.56462 2.82617,2.89649 0.49304,4.31992 -2.50762,11.11497 -6.42969,14.55859 -2.93669,2.57845 -4.28686,3.04492 -8.78711,3.04492 -3.86806,0 -6.21816,-0.61324 -8.62305,-2.25 -5.02661,-3.42108 -7.29881,-7.09077 -7.40039,-11.95312 -0.0824,-3.94577 0.12888,-4.32055 2.59571,-4.60547 2.33583,-0.26979 2.81707,0.16352 3.6914,3.33008 2.24973,8.14784 10.9275,11.37222 15.04492,5.58984 1.13183,-1.58951 2.62675,-4.62701 3.32227,-6.75 1.01922,-3.11104 1.74835,-3.86132 3.75977,-3.86133 z m -31.54493,33.64258 c 9.53114,0.16661 16.54102,7.56303 16.54102,17.86719 0,5.9288 -1.71088,9.72843 -6.00977,13.3457 -6.05571,5.09554 -14.58569,5.77476 -20.63671,1.64453 -5.72524,-3.90782 -7.66958,-7.2222 -8.15235,-13.89648 -0.34432,-4.76016 -0.003,-6.68342 1.73828,-9.78125 3.06344,-5.45066 8.06021,-8.57439 14.58203,-9.11523 0.6565,-0.0545 1.30209,-0.0756 1.9375,-0.0645 z m -203.45898,219.85742 v 6.25 l 0.002,6.25 h 44.49805 44.5 v -6.25 -6.25 h -44.5 z"
       style="opacity:1;fill:#ffffff;fill-opacity:1;stroke:none;stroke-width:5;stroke-linejoin:round;stroke-miterlimit:4;stroke-dasharray:10, 10;stroke-dashoffset:0" />
  </g>
</svg>
